<svg id="eg3FT4vin6B1" xmlns="http://www.w3.org/2000/svg" xmlns:xlink="http://www.w3.org/1999/xlink" viewBox="0 0 446 375" shape-rendering="geometricPrecision" text-rendering="geometricPrecision" width="446" height="375"><style><![CDATA[#eg3FT4vin6B66_ts {animation: eg3FT4vin6B66_ts__ts 3000ms linear infinite normal forwards}@keyframes eg3FT4vin6B66_ts__ts { 0% {transform: translate(244.943893px,187.500000px) scale(1,1)} 40% {transform: translate(244.943893px,187.500000px) scale(0.850000,1)} 100% {transform: translate(244.943893px,187.500000px) scale(1,1)}} #eg3FT4vin6B87_tr {animation: eg3FT4vin6B87_tr__tr 3000ms linear infinite normal forwards}@keyframes eg3FT4vin6B87_tr__tr { 0% {transform: translate(92.907200px,98.139439px) rotate(0deg)} 50% {transform: translate(92.907200px,98.139439px) rotate(5deg)} 100% {transform: translate(92.907200px,98.139439px) rotate(0deg)}} #eg3FT4vin6B107_tr {animation: eg3FT4vin6B107_tr__tr 3000ms linear infinite normal forwards}@keyframes eg3FT4vin6B107_tr__tr { 0% {transform: translate(55.416046px,100.404198px) rotate(0deg)} 33.333333% {transform: translate(55.416046px,100.404198px) rotate(-4deg);animation-timing-function: cubic-bezier(0.420000,0,1,1)} 100% {transform: translate(55.416046px,100.404198px) rotate(0deg)}}]]></style><path id="eg3FT4vin6B2" d="M217.100000,375C336.813000,375,433.860000,357.539000,433.860000,336L0.339844,336C0.339844,357.539000,97.386500,375,217.100000,375Z" fill="rgb(245,245,245)" stroke="none" stroke-width="1" stroke-miterlimit="1"/><path id="eg3FT4vin6B3" d="M227.898000,251.354000C227.898000,251.354000,227.898000,276.296000,249.385000,288.247000C270.873000,300.198000,340.946000,249.297000,339.705000,251.354000C338.464000,253.411000,227.898000,251.354000,227.898000,251.354000Z" fill="rgb(38,50,56)" stroke="none" stroke-width="1" stroke-miterlimit="1"/><path id="eg3FT4vin6B4" d="M227.898000,251.354000C227.898000,251.354000,227.898000,276.296000,249.385000,288.247000C270.873000,300.198000,340.946000,249.297000,339.705000,251.354000C338.464000,253.411000,227.898000,251.354000,227.898000,251.354000Z" opacity="0.2" fill="rgb(255,255,255)" stroke="none" stroke-width="1" stroke-miterlimit="1"/><path id="eg3FT4vin6B5" d="M250.056000,143.774000C232.605000,144.344000,213.801000,144.892000,196.395000,145.473000C192.672000,140.789000,190.778000,134.911000,191.066000,128.935000C191.354000,122.958000,193.804000,117.290000,197.960000,112.985000C199.767000,111.129000,201.926000,109.651000,204.310000,108.636000C213.086000,104.791000,224.735000,106.557000,232.873000,111.890000C241.538000,117.580000,246.915000,127.541000,249.128000,137.837000C249.552000,139.797000,249.862000,141.779000,250.056000,143.774000Z" fill="rgb(73,154,250)" stroke="none" stroke-width="1" stroke-miterlimit="1"/><path id="eg3FT4vin6B6" d="M250.056000,143.774000C232.605000,144.344000,213.801000,144.892000,196.395000,145.473000C192.672000,140.789000,190.778000,134.911000,191.066000,128.935000C191.354000,122.958000,193.804000,117.290000,197.960000,112.985000C199.767000,111.129000,201.926000,109.651000,204.310000,108.636000C213.086000,104.791000,224.735000,106.557000,232.873000,111.890000C241.538000,117.580000,246.915000,127.541000,249.128000,137.837000C249.552000,139.797000,249.862000,141.779000,250.056000,143.774000Z" opacity="0.5" fill="rgb(255,255,255)" stroke="none" stroke-width="1" stroke-miterlimit="1"/><path id="eg3FT4vin6B7" d="M249.129000,137.826000L204.322000,139.246000C200.860000,134.894000,198.975000,129.497000,198.975000,123.936000C198.975000,118.374000,200.860000,112.978000,204.322000,108.625000C213.097000,104.779000,224.747000,106.546000,232.885000,111.878000C241.493000,117.569000,246.916000,127.519000,249.129000,137.826000Z" opacity="0.5" fill="rgb(255,255,255)" stroke="none" stroke-width="1" stroke-miterlimit="1"/><path id="eg3FT4vin6B8" d="M359.023000,245.161000C359.020000,248.388000,357.736000,251.481000,355.453000,253.762000C353.171000,256.043000,350.076000,257.324000,346.849000,257.324000L240.051000,257.324000L184.645000,154.349000C183.657000,152.534000,183.139000,150.502000,183.136000,148.435000C183.145000,147.368000,183.284000,146.306000,183.549000,145.272000C184.142000,142.999000,185.364000,140.939000,187.075000,139.330000C188.785000,137.720000,190.915000,136.625000,193.220000,136.171000C194.021000,136.004000,194.838000,135.921000,195.657000,135.925000L250.437000,135.925000C254.581000,135.929000,258.637000,137.126000,262.118000,139.375000C265.600000,141.623000,268.360000,144.827000,270.068000,148.603000L286.837000,185.753000L309.610000,231.298000C309.610000,231.298000,335.468000,232.170000,347.475000,231.298000C359.482000,230.426000,359.023000,245.161000,359.023000,245.161000Z" fill="rgb(73,154,250)" stroke="none" stroke-width="1" stroke-miterlimit="1"/><path id="eg3FT4vin6B9" d="M359.023000,245.161000C359.020000,248.388000,357.736000,251.481000,355.453000,253.762000C353.171000,256.043000,350.076000,257.324000,346.849000,257.324000L240.051000,257.324000L184.645000,154.349000C183.657000,152.534000,183.139000,150.502000,183.136000,148.435000C183.145000,147.368000,183.284000,146.306000,183.549000,145.272000C184.142000,142.999000,185.364000,140.939000,187.075000,139.330000C188.785000,137.720000,190.915000,136.625000,193.220000,136.171000C194.021000,136.004000,194.838000,135.921000,195.657000,135.925000L250.437000,135.925000C254.581000,135.929000,258.637000,137.126000,262.118000,139.375000C265.600000,141.623000,268.360000,144.827000,270.068000,148.603000L286.837000,185.753000L309.610000,231.298000C309.610000,231.298000,335.468000,232.170000,347.475000,231.298000C359.482000,230.426000,359.023000,245.161000,359.023000,245.161000Z" opacity="0.5" fill="rgb(255,255,255)" stroke="none" stroke-width="1" stroke-miterlimit="1"/><path id="eg3FT4vin6B10" d="M298.598000,245.161000C298.598000,248.387000,297.316000,251.481000,295.035000,253.762000C292.754000,256.043000,289.661000,257.324000,286.435000,257.324000L240.051000,257.324000L184.645000,154.350000C183.657000,152.535000,183.139000,150.502000,183.136000,148.436000C183.145000,147.368000,183.284000,146.306000,183.549000,145.272000C184.142000,142.999000,185.364000,140.940000,187.075000,139.330000C188.785000,137.720000,190.915000,136.626000,193.220000,136.172000C196.774000,136.710000,200.137000,138.130000,203.001000,140.301000C205.866000,142.473000,208.141000,145.327000,209.620000,148.604000L226.389000,185.753000L249.162000,231.298000C249.162000,231.298000,275.009000,232.170000,287.016000,231.298000C299.023000,230.426000,298.598000,245.161000,298.598000,245.161000Z" opacity="0.5" fill="rgb(255,255,255)" stroke="none" stroke-width="1" stroke-miterlimit="1"/><path id="eg3FT4vin6B11" d="M373.558000,258.319000L239.604000,258.319000C237.830000,258.319000,236.073000,257.970000,234.434000,257.290000C232.795000,256.611000,231.305000,255.615000,230.051000,254.360000C228.797000,253.105000,227.802000,251.615000,227.124000,249.975000C226.446000,248.335000,226.098000,246.578000,226.100000,244.803000C226.100000,241.222000,227.522000,237.787000,230.055000,235.254000C232.588000,232.721000,236.023000,231.298000,239.604000,231.298000L373.558000,231.298000C375.332000,231.297000,377.089000,231.645000,378.729000,232.323000C380.369000,233.001000,381.859000,233.996000,383.114000,235.250000C384.369000,236.504000,385.365000,237.993000,386.045000,239.633000C386.724000,241.272000,387.074000,243.029000,387.074000,244.803000C387.074000,248.388000,385.650000,251.826000,383.115000,254.361000C380.580000,256.895000,377.142000,258.319000,373.558000,258.319000Z" fill="rgb(73,154,250)" stroke="none" stroke-width="1" stroke-miterlimit="1"/><path id="eg3FT4vin6B12" d="M387.062000,244.803000C387.062000,248.386000,385.640000,251.822000,383.108000,254.357000C380.575000,256.891000,377.140000,258.316000,373.558000,258.319000L239.604000,258.319000C236.023000,258.319000,232.588000,256.896000,230.055000,254.364000C227.522000,251.831000,226.100000,248.396000,226.100000,244.814000C226.100000,241.233000,227.522000,237.798000,230.055000,235.265000C232.588000,232.732000,236.023000,231.310000,239.604000,231.310000L373.558000,231.310000C377.137000,231.310000,380.571000,232.731000,383.103000,235.261000C385.635000,237.791000,387.059000,241.223000,387.062000,244.803000Z" opacity="0.5" fill="rgb(255,255,255)" stroke="none" stroke-width="1" stroke-miterlimit="1"/><path id="eg3FT4vin6B13" d="M443.015000,291.030000L398.811000,236.597000C397.443000,234.912000,395.681000,233.590000,393.680000,232.747000C391.679000,231.905000,389.502000,231.569000,387.341000,231.768000L331.175000,231.768000C327.777000,231.476000,324.399000,232.514000,321.750000,234.663000C319.032000,236.869000,317.301000,240.065000,316.938000,243.547000C316.576000,247.029000,317.611000,250.513000,319.816000,253.232000L364.031000,307.677000C365.265000,309.198000,366.822000,310.424000,368.590000,311.268000C370.358000,312.111000,372.291000,312.549000,374.250000,312.551000L432.663000,312.551000C435.168000,312.576000,437.630000,311.888000,439.759000,310.566000C441.888000,309.244000,443.597000,307.344000,444.686000,305.087000C445.775000,302.830000,446.199000,300.310000,445.910000,297.821000C445.620000,295.332000,444.627000,292.976000,443.048000,291.030000L443.015000,291.030000Z" fill="rgb(73,154,250)" stroke="none" stroke-width="1" stroke-miterlimit="1"/><path id="eg3FT4vin6B14" d="M382.589000,309.600000C381.245000,310.692000,379.698000,311.509000,378.038000,312.003000C376.377000,312.498000,374.635000,312.661000,372.912000,312.482000C371.189000,312.303000,369.518000,311.787000,367.994000,310.963000C366.470000,310.138000,365.124000,309.022000,364.031000,307.677000L319.816000,253.232000C317.611000,250.513000,316.576000,247.030000,316.938000,243.547000C317.301000,240.065000,319.032000,236.869000,321.750000,234.663000C323.095000,233.570000,324.643000,232.753000,326.304000,232.258000C327.965000,231.764000,329.707000,231.602000,331.431000,231.781000C333.154000,231.961000,334.826000,232.479000,336.349000,233.305000C337.873000,234.132000,339.218000,235.250000,340.308000,236.597000L384.524000,291.030000C385.617000,292.376000,386.434000,293.924000,386.929000,295.586000C387.424000,297.248000,387.586000,298.991000,387.406000,300.716000C387.227000,302.441000,386.709000,304.113000,385.882000,305.637000C385.056000,307.162000,383.937000,308.508000,382.589000,309.600000Z" opacity="0.2" fill="rgb(255,255,255)" stroke="none" stroke-width="1" stroke-miterlimit="1"/><path id="eg3FT4vin6B15" d="M443.015000,291.030000L398.811000,236.597000C397.443000,234.912000,395.681000,233.590000,393.680000,232.747000C391.679000,231.905000,389.502000,231.569000,387.341000,231.768000L331.175000,231.768000C327.777000,231.476000,324.399000,232.514000,321.750000,234.663000C319.032000,236.869000,317.301000,240.065000,316.938000,243.547000C316.576000,247.029000,317.611000,250.513000,319.816000,253.232000L364.031000,307.677000C365.265000,309.198000,366.822000,310.424000,368.590000,311.268000C370.358000,312.111000,372.291000,312.549000,374.250000,312.551000L432.663000,312.551000C435.168000,312.576000,437.630000,311.888000,439.759000,310.566000C441.888000,309.244000,443.597000,307.344000,444.686000,305.087000C445.775000,302.830000,446.199000,300.310000,445.910000,297.821000C445.620000,295.332000,444.627000,292.976000,443.048000,291.030000L443.015000,291.030000Z" opacity="0.5" fill="rgb(255,255,255)" stroke="none" stroke-width="1" stroke-miterlimit="1"/><path id="eg3FT4vin6B16" d="M195.356000,343.440000L185.976000,343.440000L185.976000,352.820000L195.356000,352.820000L195.356000,343.440000Z" fill="rgb(38,50,56)" stroke="none" stroke-width="1" stroke-miterlimit="1"/><path id="eg3FT4vin6B17" d="M290.135000,343.440000L280.755000,343.440000L280.755000,352.820000L290.135000,352.820000L290.135000,343.440000Z" fill="rgb(38,50,56)" stroke="none" stroke-width="1" stroke-miterlimit="1"/><path id="eg3FT4vin6B18" d="M279.850000,343.440000L270.471000,343.440000L270.471000,352.820000L279.850000,352.820000L279.850000,343.440000Z" fill="rgb(38,50,56)" stroke="none" stroke-width="1" stroke-miterlimit="1"/><path id="eg3FT4vin6B19" d="M374.629000,343.440000L365.250000,343.440000L365.250000,352.820000L374.629000,352.820000L374.629000,343.440000Z" fill="rgb(38,50,56)" stroke="none" stroke-width="1" stroke-miterlimit="1"/><path id="eg3FT4vin6B20" d="M340.153000,343.440000L197.893000,343.440000L226.379000,286.011000L340.153000,286.011000L340.153000,343.440000Z" fill="rgb(38,50,56)" stroke="none" stroke-width="1" stroke-miterlimit="1"/><path id="eg3FT4vin6B21" d="M340.153000,343.440000L197.893000,343.440000L226.379000,286.011000L340.153000,286.011000L340.153000,343.440000Z" opacity="0.2" fill="rgb(255,255,255)" stroke="none" stroke-width="1" stroke-miterlimit="1"/><path id="eg3FT4vin6B22" d="M280.823000,343.440000L197.893000,343.440000L226.378000,286.011000L280.823000,286.011000L280.823000,343.440000Z" opacity="0.2" fill="rgb(255,255,255)" stroke="none" stroke-width="1" stroke-miterlimit="1"/><path id="eg3FT4vin6B23" d="M381.751000,337.057000L182.253000,337.057000L177.032000,348.896000L386.972000,348.896000L381.751000,337.057000Z" fill="rgb(38,50,56)" stroke="none" stroke-width="1" stroke-miterlimit="1"/><path id="eg3FT4vin6B24" d="M294.808000,337.057000L182.253000,337.057000L177.032000,348.896000L293.064000,348.896000L294.808000,337.057000Z" opacity="0.2" fill="rgb(255,255,255)" stroke="none" stroke-width="1" stroke-miterlimit="1"/><path id="eg3FT4vin6B25" d="M324.009000,190.303000L246.534000,190.303000C242.960000,190.303000,240.062000,193.201000,240.062000,196.776000L240.062000,199.213000C240.062000,202.788000,242.960000,205.686000,246.534000,205.686000L324.009000,205.686000C327.584000,205.686000,330.482000,202.788000,330.482000,199.213000L330.482000,196.776000C330.482000,193.201000,327.584000,190.303000,324.009000,190.303000Z" fill="rgb(73,154,250)" stroke="none" stroke-width="1" stroke-miterlimit="1"/><path id="eg3FT4vin6B26" d="M324.009000,190.303000L246.534000,190.303000C242.960000,190.303000,240.062000,193.201000,240.062000,196.776000L240.062000,199.213000C240.062000,202.788000,242.960000,205.686000,246.534000,205.686000L324.009000,205.686000C327.584000,205.686000,330.482000,202.788000,330.482000,199.213000L330.482000,196.776000C330.482000,193.201000,327.584000,190.303000,324.009000,190.303000Z" opacity="0.5" fill="rgb(255,255,255)" stroke="none" stroke-width="1" stroke-miterlimit="1"/><path id="eg3FT4vin6B27" d="M330.470000,197.950000C330.470000,195.910000,329.660000,193.954000,328.218000,192.511000C326.775000,191.069000,324.819000,190.258000,322.779000,190.258000L247.753000,190.258000C245.713000,190.258000,243.757000,191.069000,242.314000,192.511000C240.872000,193.954000,240.062000,195.910000,240.062000,197.950000L330.470000,197.950000Z" opacity="0.5" fill="rgb(255,255,255)" stroke="none" stroke-width="1" stroke-miterlimit="1"/><path id="eg3FT4vin6B28" d="M286.446000,191.745000C279.193000,196.251000,271.268000,199.572000,262.969000,201.583000L245.082000,205.910000C243.562000,202.444000,238.441000,195.356000,228.492000,176.116000C227.285000,174.140000,226.209000,172.086000,225.272000,169.968000C223.182000,165.430000,221.570000,160.686000,220.465000,155.814000C219.814000,152.987000,219.362000,150.118000,219.112000,147.228000C219.116000,147.202000,219.116000,147.176000,219.112000,147.150000C218.810000,146.537000,218.633000,145.870000,218.593000,145.188000C218.552000,144.506000,218.648000,143.822000,218.875000,143.177000C219.102000,142.533000,219.455000,141.940000,219.915000,141.434000C220.374000,140.928000,220.930000,140.518000,221.549000,140.230000L221.639000,140.230000C224.098000,139,227.228000,137.536000,230.336000,136.306000C236.289000,133.927000,242.365000,131.867000,248.537000,130.135000C250.617000,129.634000,252.727000,129.261000,254.853000,129.017000C256.314000,128.786000,257.809000,128.924000,259.203000,129.418000C260.597000,129.912000,261.846000,130.746000,262.835000,131.845000C267.206000,136.463000,276.810000,154.663000,286.446000,191.745000Z" fill="rgb(38,50,56)" stroke="none" stroke-width="1" stroke-miterlimit="1"/><g id="eg3FT4vin6B29" opacity="0.7"><path id="eg3FT4vin6B30" d="M279.134000,167.061000C274.763000,167.966000,270.012000,168.738000,266.401000,169.297000C265.808000,167.251000,264.903000,165.227000,264.165000,163.248000L276.149000,158.821000C277.126000,161.355000,278.121000,164.102000,279.134000,167.061000Z" opacity="0.7" fill="rgb(255,255,255)" stroke="none" stroke-width="1" stroke-miterlimit="1"/></g><path id="eg3FT4vin6B31" d="M243.728000,137.211000C234.885000,140.766000,229.765000,136.473000,229.765000,136.473000C232.381000,131.174000,227.239000,121.023000,223.896000,115.624000L230.134000,118.005000L238.631000,121.247000C238.738000,122.202000,238.903000,123.150000,239.123000,124.086000C239.272000,124.760000,239.481000,125.418000,239.749000,126.054000L239.749000,126.155000C240.867000,128.804000,243.102000,130.626000,247.686000,130.179000C247.708000,130.202000,251.230000,134.148000,243.728000,137.211000Z" fill="rgb(178,91,82)" stroke="none" stroke-width="1" stroke-miterlimit="1"/><path id="eg3FT4vin6B32" d="M238.608000,121.247000C238.715000,122.203000,238.880000,123.151000,239.100000,124.087000C239.249000,124.760000,239.459000,125.419000,239.726000,126.054000L239.726000,126.155000C237.087000,126.479000,232.940000,124.981000,231.710000,122.578000C231.306000,121.785000,230.984000,120.953000,230.749000,120.096000L238.608000,121.247000Z" opacity="0.2" fill="rgb(0,0,0)" stroke="none" stroke-width="1" stroke-miterlimit="1"/><path id="eg3FT4vin6B33" d="M236.171000,107.284000C236.171000,107.284000,239.939000,109.195000,240.811000,104.589000C237.055000,102.130000,238.106000,101.034000,236.630000,98.384700C235.885000,96.794600,234.723000,95.435600,233.269000,94.451600C231.815000,93.467500,230.121000,92.895100,228.368000,92.794900L225.730000,94.471900C217.222000,102.074000,236.171000,107.284000,236.171000,107.284000Z" fill="rgb(38,50,56)" stroke="none" stroke-width="1" stroke-miterlimit="1"/><path id="eg3FT4vin6B34" d="M215.690000,108.323000C214.811000,105.523000,215.081000,102.488000,216.439000,99.886300C217.798000,97.284500,220.134000,95.328900,222.934000,94.449600C231.386000,91.576500,240.721000,99.938800,244.466000,106.647000C245.467000,108.368000,245.979000,110.330000,245.947000,112.320000C245.915000,114.311000,245.340000,116.255000,244.283000,117.943000C243.227000,119.631000,241.730000,120.999000,239.954000,121.898000C238.177000,122.797000,236.189000,123.195000,234.203000,123.047000C228.066000,122.656000,224.813000,118.966000,218.742000,113.153000C217.324000,111.835000,216.272000,110.170000,215.690000,108.323000Z" fill="rgb(178,91,82)" stroke="none" stroke-width="1" stroke-miterlimit="1"/><path id="eg3FT4vin6B35" d="M241.492000,109.207000C238.815000,110.191000,236.249000,111.454000,233.834000,112.974000C234.639000,113.841000,235.730000,114.386000,236.906000,114.510000C238.082000,114.633000,239.263000,114.326000,240.229000,113.645000C240.959000,113.269000,241.514000,112.623000,241.775000,111.844000C242.036000,111.065000,241.983000,110.215000,241.627000,109.475000L241.492000,109.207000Z" fill="rgb(38,50,56)" stroke="none" stroke-width="1" stroke-miterlimit="1"/><path id="eg3FT4vin6B36" d="M238.195000,112.907000C239.234000,112.223000,240.480000,111.922000,241.717000,112.058000C241.419000,112.723000,240.907000,113.270000,240.263000,113.612000C239.231000,114.303000,237.987000,114.604000,236.753000,114.461000C237.043000,113.794000,237.552000,113.246000,238.195000,112.907000Z" fill="rgb(255,86,82)" stroke="none" stroke-width="1" stroke-miterlimit="1"/><path id="eg3FT4vin6B37" d="M241.258000,109.307000C241.326000,109.552000,241.328000,109.810000,241.263000,110.056000C241.198000,110.301000,241.069000,110.525000,240.889000,110.705000C239.271000,111.629000,237.572000,112.404000,235.813000,113.019000C235.536000,113.138000,235.232000,113.183000,234.931000,113.147000C234.631000,113.112000,234.345000,112.998000,234.103000,112.818000C236.382000,111.443000,238.776000,110.269000,241.258000,109.307000Z" fill="rgb(255,255,255)" stroke="none" stroke-width="1" stroke-miterlimit="1"/><path id="eg3FT4vin6B38" d="M226.792000,120.811000L218.575000,116.339000C219.535000,112.765000,221.064000,109.367000,223.102000,106.278000L223.527000,106.490000L226.792000,120.811000Z" fill="rgb(178,91,82)" stroke="none" stroke-width="1" stroke-miterlimit="1"/><path id="eg3FT4vin6B39" d="M226.792000,120.811000L218.575000,116.339000C219.535000,112.765000,221.064000,109.367000,223.102000,106.278000L223.527000,106.490000L226.792000,120.811000Z" opacity="0.2" fill="rgb(0,0,0)" stroke="none" stroke-width="1" stroke-miterlimit="1"/><path id="eg3FT4vin6B40" d="M223.102000,106.345000C221.064000,109.434000,219.535000,112.832000,218.575000,116.406000L213.443000,113.611000L217.457000,103.460000L223.102000,106.345000Z" fill="rgb(38,50,56)" stroke="none" stroke-width="1" stroke-miterlimit="1"/><path id="eg3FT4vin6B41" d="M238.518000,108.133000C239.021000,107.882000,239.463000,107.524000,239.813000,107.083000C240.162000,106.643000,240.411000,106.131000,240.542000,105.584000C238.312000,105.157000,236.150000,104.431000,234.113000,103.427000L238.518000,108.133000Z" fill="rgb(157,39,36)" stroke="none" stroke-width="1" stroke-miterlimit="1"/><path id="eg3FT4vin6B42" d="M219.827000,114.808000C221.437000,113.444000,224.690000,114.484000,226.434000,115.635000C228.391000,116.921000,228.838000,118.989000,226.691000,119.704000C224.938000,120.210000,223.064000,120.088000,221.392000,119.358000C219.290000,118.452000,218.228000,116.172000,219.827000,114.808000Z" fill="rgb(178,91,82)" stroke="none" stroke-width="1" stroke-miterlimit="1"/><path id="eg3FT4vin6B43" d="M229.956000,105.842000C230.291000,105.562000,230.995000,105.775000,231.409000,106.233000C231.823000,106.691000,231.923000,107.351000,231.588000,107.630000C231.253000,107.910000,230.649000,107.709000,230.146000,107.250000C229.643000,106.792000,229.609000,106.132000,229.956000,105.842000Z" fill="rgb(38,50,56)" stroke="none" stroke-width="1" stroke-miterlimit="1"/><path id="eg3FT4vin6B44" d="M235.490000,100.542000C235.836000,100.252000,236.473000,100.419000,236.943000,100.922000C237.412000,101.426000,237.513000,102.040000,237.166000,102.353000C236.820000,102.666000,236.183000,102.465000,235.713000,101.962000C235.244000,101.459000,235.154000,100.822000,235.490000,100.542000Z" fill="rgb(38,50,56)" stroke="none" stroke-width="1" stroke-miterlimit="1"/><path id="eg3FT4vin6B45" d="M232.728000,99.178800C232.792000,99.189600,232.858000,99.185200,232.920000,99.165800C232.982000,99.146300,233.039000,99.112500,233.086000,99.067000C233.420000,98.677000,233.838000,98.367100,234.308000,98.160000C234.778000,97.953000,235.289000,97.854200,235.802000,97.870800C235.852000,97.878700,235.903000,97.876500,235.952000,97.864500C236.002000,97.852400,236.048000,97.830600,236.088000,97.800400C236.129000,97.770200,236.163000,97.732200,236.189000,97.688600C236.215000,97.645000,236.231000,97.596700,236.238000,97.546600C236.248000,97.442000,236.218000,97.337500,236.153000,97.254500C236.089000,97.171400,235.995000,97.116000,235.892000,97.099400C235.258000,97.067700,234.627000,97.182300,234.045000,97.434400C233.463000,97.686400,232.948000,98.069100,232.538000,98.552700C232.465000,98.629600,232.424000,98.731700,232.424000,98.837800C232.424000,98.944000,232.465000,99.046000,232.538000,99.122900C232.597000,99.154000,232.661000,99.172900,232.728000,99.178800Z" fill="rgb(38,50,56)" stroke="none" stroke-width="1" stroke-miterlimit="1"/><path id="eg3FT4vin6B46" d="M227.452000,106.199000C227.510000,106.170000,227.561000,106.128000,227.600000,106.075000C227.639000,106.023000,227.664000,105.962000,227.675000,105.898000C227.692000,105.384000,227.827000,104.880000,228.069000,104.427000C228.311000,103.973000,228.655000,103.581000,229.073000,103.282000C229.118000,103.258000,229.159000,103.226000,229.191000,103.186000C229.224000,103.146000,229.248000,103.100000,229.261000,103.051000C229.275000,103.001000,229.278000,102.950000,229.271000,102.899000C229.263000,102.848000,229.245000,102.799000,229.218000,102.756000C229.163000,102.666000,229.074000,102.602000,228.972000,102.577000C228.869000,102.552000,228.761000,102.568000,228.670000,102.622000C228.144000,102.987000,227.709000,103.468000,227.399000,104.029000C227.089000,104.589000,226.912000,105.213000,226.882000,105.853000C226.878000,105.906000,226.886000,105.959000,226.903000,106.009000C226.921000,106.059000,226.948000,106.105000,226.983000,106.144000C227.019000,106.184000,227.061000,106.216000,227.109000,106.239000C227.157000,106.261000,227.209000,106.275000,227.262000,106.278000C227.331000,106.268000,227.396000,106.241000,227.452000,106.199000Z" fill="rgb(38,50,56)" stroke="none" stroke-width="1" stroke-miterlimit="1"/><path id="eg3FT4vin6B47" d="M421.406000,257.794000L419.472000,264.445000L411.031000,259.761000L408.650000,258.442000L407.006000,257.525000L412.037000,250.739000L413.054000,251.511000L415.302000,253.199000L421.406000,257.794000Z" fill="rgb(178,91,82)" stroke="none" stroke-width="1" stroke-miterlimit="1"/><path id="eg3FT4vin6B48" d="M436.408000,253.702000C434.071000,256.642000,431.813000,259.213000,430.114000,261.326000C427.341000,264.770000,426.447000,266.201000,424.323000,268.962000C424.067000,269.280000,423.699000,269.487000,423.294000,269.539000C422.890000,269.591000,422.481000,269.484000,422.154000,269.241000L416.564000,264.144000C416.451000,264.029000,416.388000,263.874000,416.388000,263.713000C416.388000,263.552000,416.451000,263.398000,416.564000,263.283000L421.036000,256.877000C421.863000,256.188000,422.800000,255.644000,423.808000,255.267000C426.849000,254.484000,429.174000,254.406000,434.753000,249.733000C435.054000,249.524000,435.423000,249.434000,435.787000,249.482000C436.150000,249.529000,436.483000,249.711000,436.721000,249.990000C437.425000,250.706000,437.727000,252.070000,436.408000,253.702000Z" fill="rgb(38,50,56)" stroke="none" stroke-width="1" stroke-miterlimit="1"/><path id="eg3FT4vin6B49" d="M414.898000,252.886000L410.515000,259.504000L408.648000,258.442000L413.053000,251.511000L414.898000,252.886000Z" opacity="0.2" fill="rgb(0,0,0)" stroke="none" stroke-width="1" stroke-miterlimit="1"/><path id="eg3FT4vin6B50" d="M413.758000,250.393000L407.822000,259.761000C407.822000,259.761000,374.529000,246.994000,345.396000,219.828000L345.485000,219.347000C328.939000,223.506000,280.487000,224.233000,272.706000,215.993000C268.615000,211.454000,265.741000,206.636000,265.026000,200.700000L272.706000,198.151000C276.753000,196.507000,283.752000,194.026000,286.043000,191.275000C286.043000,191.275000,330.113000,193.970000,348.246000,202.522000C367.251000,209.520000,413.758000,250.393000,413.758000,250.393000Z" fill="rgb(73,154,250)" stroke="none" stroke-width="1" stroke-miterlimit="1"/><g id="eg3FT4vin6B51" opacity="0.1"><g id="eg3FT4vin6B52" opacity="0.1"><path id="eg3FT4vin6B53" d="M413.758000,250.393000L407.822000,259.761000C407.822000,259.761000,374.529000,246.994000,345.396000,219.828000L345.485000,219.347000C328.939000,223.506000,280.487000,224.233000,272.706000,215.993000C268.615000,211.454000,265.741000,206.636000,265.026000,200.700000L272.706000,198.151000C276.753000,196.507000,283.752000,194.026000,286.043000,191.275000C286.043000,191.275000,330.113000,193.970000,348.246000,202.522000C367.251000,209.520000,413.758000,250.393000,413.758000,250.393000Z" opacity="0.1" fill="rgb(0,0,0)" stroke="none" stroke-width="1" stroke-miterlimit="1"/></g></g><path id="eg3FT4vin6B54" d="M412.418000,268.135000L408.639000,274.015000L400.075000,269.744000L397.102000,268.246000L401.596000,260.812000L401.596000,260.801000L412.418000,268.135000Z" fill="rgb(178,91,82)" stroke="none" stroke-width="1" stroke-miterlimit="1"/><path id="eg3FT4vin6B55" d="M404.525000,262.780000L400.154000,269.566000L400.075000,269.744000L397.102000,268.246000L401.596000,260.812000L404.525000,262.780000Z" opacity="0.2" fill="rgb(0,0,0)" stroke="none" stroke-width="1" stroke-miterlimit="1"/><path id="eg3FT4vin6B56" d="M403.138000,259.862000L402.780000,260.499000L397,269.800000L339.381000,233.724000C322.310000,239.090000,264.076000,239.627000,255.434000,231.488000C254.791000,230.865000,254.183000,230.209000,253.612000,229.520000C252.986000,228.816000,252.415000,228.078000,251.879000,227.340000C251.877000,227.318000,251.877000,227.296000,251.879000,227.273000C249.611000,223.524000,247.933000,219.448000,246.904000,215.188000C246.061000,212.013000,245.422000,208.786000,244.992000,205.529000C261.370000,202.287000,281.080000,197.066000,286.077000,191.242000L295.915000,206.222000C312.483000,207.832000,337.626000,211.812000,344.166000,214.439000C364.468000,220.644000,403.138000,259.862000,403.138000,259.862000Z" fill="rgb(73,154,250)" stroke="none" stroke-width="1" stroke-miterlimit="1"/><path id="eg3FT4vin6B57" d="M253.611000,229.532000C252.996000,228.824000,252.429000,228.078000,251.912000,227.296000C252.415000,228.134000,252.985000,228.827000,253.611000,229.532000Z" fill="rgb(73,154,250)" stroke="none" stroke-width="1" stroke-miterlimit="1"/><path id="eg3FT4vin6B58" d="M427.073000,261.919000C426.649000,262.522000,426.213000,263.104000,425.810000,263.685000L425.754000,263.763000L424.480000,265.474000L423.910000,266.234000C423.619000,266.637000,423.306000,267.073000,422.971000,267.509000L422.300000,268.403000L420.958000,270.259000C418.275000,274.049000,417.425000,275.603000,415.368000,278.621000C415.123000,278.967000,414.753000,279.204000,414.336000,279.283000C413.919000,279.362000,413.488000,279.277000,413.133000,279.046000L407.956000,274.831000L406.995000,274.049000C406.930000,273.995000,406.876000,273.928000,406.837000,273.853000C406.797000,273.779000,406.773000,273.697000,406.766000,273.612000C406.759000,273.528000,406.768000,273.443000,406.794000,273.362000C406.820000,273.282000,406.862000,273.207000,406.917000,273.143000L411.187000,266.156000C412.016000,265.390000,412.964000,264.763000,413.993000,264.300000C417.135000,263.294000,419.583000,263.070000,425.117000,257.838000C426.280000,256.676000,429.309000,258.710000,427.073000,261.919000Z" fill="rgb(38,50,56)" stroke="none" stroke-width="1" stroke-miterlimit="1"/><path id="eg3FT4vin6B59" d="M251.846000,227.263000C249.285000,223.672000,247.548000,219.561000,246.759000,215.222000L246.871000,215.222000C247.900000,219.468000,249.579000,223.529000,251.846000,227.263000Z" fill="rgb(73,154,250)" stroke="none" stroke-width="1" stroke-miterlimit="1"/><path id="eg3FT4vin6B60" d="M255.579000,190.303000L178.105000,190.303000C174.530000,190.303000,171.632000,193.201000,171.632000,196.776000L171.632000,199.213000C171.632000,202.788000,174.530000,205.686000,178.105000,205.686000L255.579000,205.686000C259.154000,205.686000,262.052000,202.788000,262.052000,199.213000L262.052000,196.776000C262.052000,193.201000,259.154000,190.303000,255.579000,190.303000Z" fill="rgb(73,154,250)" stroke="none" stroke-width="1" stroke-miterlimit="1"/><path id="eg3FT4vin6B61" d="M255.579000,190.303000L178.105000,190.303000C174.530000,190.303000,171.632000,193.201000,171.632000,196.776000L171.632000,199.213000C171.632000,202.788000,174.530000,205.686000,178.105000,205.686000L255.579000,205.686000C259.154000,205.686000,262.052000,202.788000,262.052000,199.213000L262.052000,196.776000C262.052000,193.201000,259.154000,190.303000,255.579000,190.303000Z" opacity="0.5" fill="rgb(255,255,255)" stroke="none" stroke-width="1" stroke-miterlimit="1"/><path id="eg3FT4vin6B62" d="M262.052000,197.950000C262.052000,195.910000,261.242000,193.954000,259.799000,192.511000C258.357000,191.069000,256.400000,190.258000,254.360000,190.258000L179.335000,190.258000C178.324000,190.257000,177.322000,190.455000,176.388000,190.841000C175.453000,191.226000,174.604000,191.793000,173.889000,192.507000C173.173000,193.222000,172.606000,194.070000,172.218000,195.004000C171.831000,195.938000,171.632000,196.939000,171.632000,197.950000L262.052000,197.950000Z" opacity="0.5" fill="rgb(255,255,255)" stroke="none" stroke-width="1" stroke-miterlimit="1"/><path id="eg3FT4vin6B63" d="M245.965000,191.488000C235.378000,192.416000,228.905000,191.958000,218.351000,191.913000C209.206000,191.913000,207.910000,191.913000,207.910000,188.961000C207.910000,185.608000,208.692000,179.850000,208.692000,176.530000C212.806000,176.787000,216.462000,177.234000,220.520000,176.530000L220.028000,181.840000C231.532000,181.549000,235.400000,184.959000,245.965000,186.200000L245.965000,191.488000Z" fill="rgb(178,91,82)" stroke="none" stroke-width="1" stroke-miterlimit="1"/><path id="eg3FT4vin6B64" d="M226.960000,173.355000C224.054000,167.835000,221.889000,161.956000,220.521000,155.870000L222.756000,154.551000L226.960000,173.355000Z" opacity="0.2" fill="rgb(0,0,0)" stroke="none" stroke-width="1" stroke-miterlimit="1"/><path id="eg3FT4vin6B65" d="M220.341000,141.035000C216.160000,141.795000,212.862000,145.238000,211.185000,149.140000C209.508000,153.041000,208.144000,175.121000,208.088000,174.249000L206.658000,174.249000L205.651000,181.817000C211.029000,181.661000,217.859000,181.169000,223.226000,181.013000C223.226000,181.013000,223.460000,176.228000,223.226000,173.891000L221.806000,174.014000L224.780000,154.059000C225.279000,150.853000,225.019000,147.575000,224.019000,144.489000C223.874000,144.003000,223.675000,143.534000,223.427000,143.092000C222.745000,142.052000,221.627000,140.800000,220.341000,141.035000Z" fill="rgb(38,50,56)" stroke="none" stroke-width="1" stroke-miterlimit="1"/><g id="eg3FT4vin6B66_ts" transform="translate(244.943893,187.500000) scale(1,1)"><g id="eg3FT4vin6B66" transform="translate(-244.943893,-187.500000)"><path id="eg3FT4vin6B67" d="M268.101000,185.809000C268.101000,186.902000,267.776000,187.970000,267.169000,188.878000C266.562000,189.787000,265.699000,190.495000,264.689000,190.912000C263.679000,191.330000,262.568000,191.439000,261.496000,191.225000C260.425000,191.011000,259.441000,190.483000,258.669000,189.710000C257.897000,188.936000,257.372000,187.951000,257.160000,186.879000C256.948000,185.807000,257.059000,184.697000,257.479000,183.688000C257.899000,182.679000,258.608000,181.817000,259.518000,181.211000C260.427000,180.606000,261.496000,180.284000,262.589000,180.286000C264.052000,180.289000,265.454000,180.872000,266.487000,181.908000C267.520000,182.943000,268.101000,184.346000,268.101000,185.809000Z" fill="rgb(73,154,250)" stroke="none" stroke-width="1" stroke-miterlimit="1"/><path id="eg3FT4vin6B68" d="M262.074000,194.685000C263.662000,194.532000,265.220000,194.156000,266.702000,193.567000C267.018000,193.429000,267.303000,193.228000,267.540000,192.977000C267.776000,192.726000,267.960000,192.430000,268.080000,192.107000C268.200000,191.784000,268.254000,191.440000,268.238000,191.095000C268.222000,190.751000,268.137000,190.413000,267.988000,190.102000C267.776000,189.632000,267.552000,189.163000,267.284000,188.693000C265.830000,189.409000,264.064000,190.225000,262.544000,189.643000C259.592000,188.525000,257.870000,185.921000,254.718000,185.854000L245.305000,186.301000C244.874000,187.960000,244.828000,189.696000,245.171000,191.376000C250.560000,193.488000,256.286000,194.609000,262.074000,194.685000Z" fill="rgb(178,91,82)" stroke="none" stroke-width="1" stroke-miterlimit="1"/></g></g><path id="eg3FT4vin6B69" d="M263.393000,168.749000L256.853000,172.919000C256.853000,172.919000,249.888000,176.273000,247.630000,174.584000C246.663000,173.381000,245.869000,172.049000,245.271000,170.627000C245.063000,170.218000,244.986000,169.756000,245.050000,169.302000C245.114000,168.848000,245.316000,168.424000,245.629000,168.089000L250.101000,164.187000C251.076000,163.354000,252.316000,162.894000,253.600000,162.891000L261.973000,162.891000L263.393000,168.749000Z" fill="rgb(178,91,82)" stroke="none" stroke-width="1" stroke-miterlimit="1"/><path id="eg3FT4vin6B70" d="M291.130000,162.734000C291.057000,162.845000,290.971000,162.947000,290.873000,163.036000C290.767000,163.144000,290.651000,163.242000,290.526000,163.326000C290.393000,163.439000,290.251000,163.540000,290.101000,163.628000C289.357000,164.076000,288.570000,164.451000,287.753000,164.746000C287.530000,164.836000,287.284000,164.936000,287.027000,165.015000C286.770000,165.093000,286.524000,165.205000,286.244000,165.283000C285.708000,165.451000,285.126000,165.629000,284.545000,165.786000L283.952000,165.942000L282.276000,166.378000L282.097000,166.378000C281.146000,166.602000,280.151000,166.826000,279.145000,167.038000C279.028000,167.071000,278.909000,167.094000,278.787000,167.105000C275.434000,167.809000,271.789000,168.424000,268.726000,168.894000C268.312000,168.961000,267.899000,169.028000,267.519000,169.073000L266.401000,169.240000C265.808000,167.183000,263.438000,163.382000,262.700000,161.415000L274.696000,157.044000L277.390000,156.060000C277.390000,156.060000,274.439000,151.376000,273.500000,150.090000C272.561000,148.804000,271.811000,147.776000,270.962000,146.602000C267.317000,139,264.701000,133.678000,261.750000,131.230000C260.340000,129.907000,258.514000,129.117000,256.585000,128.994000C256.585000,128.994000,262.913000,127.563000,265.037000,128.212000C267.150000,128.966000,269.095000,130.128000,270.761000,131.632000C277.069000,136.664000,282.573000,142.628000,287.083000,149.319000C287.161000,149.441000,287.273000,149.598000,287.373000,149.777000C287.787000,150.403000,288.189000,151.040000,288.570000,151.677000C290.515000,154.852000,293.008000,160.051000,291.130000,162.734000Z" fill="rgb(38,50,56)" stroke="none" stroke-width="1" stroke-miterlimit="1"/><path id="eg3FT4vin6B71" d="M275.445000,152.986000L272.170000,148.424000C271.052000,145.931000,270.057000,143.718000,269.084000,141.772000L270.370000,143.002000C273.122000,145.675000,274.907000,149.187000,275.445000,152.986000Z" opacity="0.2" fill="rgb(0,0,0)" stroke="none" stroke-width="1" stroke-miterlimit="1"/><path id="eg3FT4vin6B72" d="M269.609000,171.432000C267.389000,170.730000,265.042000,170.524000,262.734000,170.828000C261.504000,167.363000,260.166000,163.938000,258.720000,160.554000C260.843000,159.606000,263.111000,159.024000,265.428000,158.833000C266.781000,162.947000,269.017000,167.161000,269.609000,171.432000Z" fill="rgb(38,50,56)" stroke="none" stroke-width="1" stroke-miterlimit="1"/><path id="eg3FT4vin6B73" d="M269.609000,171.432000C267.389000,170.730000,265.042000,170.524000,262.734000,170.828000C261.504000,167.363000,260.166000,163.938000,258.720000,160.554000C260.843000,159.606000,263.111000,159.024000,265.428000,158.833000C266.781000,162.947000,269.017000,167.161000,269.609000,171.432000Z" opacity="0.1" fill="rgb(255,255,255)" stroke="none" stroke-width="1" stroke-miterlimit="1"/><path id="eg3FT4vin6B74" d="M213.902000,113.924000C211.756000,112.437000,210.783000,109.732000,210.481000,107.138000C210.179000,104.545000,212.952000,104.042000,212.639000,101.448000C212.326000,98.854200,211.297000,96.148800,209.128000,94.740100C210.995000,95.243200,213.365000,94.840800,215.054000,95.779900C213.881000,93.806500,212.016000,92.340100,209.822000,91.665800C212.864000,91.438700,215.923000,91.776100,218.843000,92.660800C218.642000,90.424900,216.608000,87.462300,215.277000,85.628800L222.644000,90.100600C223.372000,88.408200,223.460000,86.508900,222.890000,84.756800C225.193000,87.238700,230.202000,92.493100,230.202000,92.493100L231.320000,94.550100C226.848000,94.997300,227.798000,97.389700,227.798000,97.389700C227.798000,97.389700,217.580000,98.127500,213.902000,113.924000Z" fill="rgb(38,50,56)" stroke="none" stroke-width="1" stroke-miterlimit="1"/><path id="eg3FT4vin6B75" d="M206.658000,174.271000L223.248000,173.914000L223.226000,181.035000L205.651000,181.840000L206.658000,174.271000Z" opacity="0.1" fill="rgb(255,255,255)" stroke="none" stroke-width="1" stroke-miterlimit="1"/><path id="eg3FT4vin6B76" d="M68.781200,337.851000L76.785800,342.110000L77.546000,329.410000L69.317900,328.952000L68.781200,337.851000Z" fill="rgb(247,151,141)" stroke="none" stroke-width="1" stroke-miterlimit="1"/><path id="eg3FT4vin6B77" d="M77.155100,340.086000L68.669800,336.274000C68.520500,336.208000,68.353200,336.194000,68.195000,336.235000C68.036800,336.275000,67.896900,336.368000,67.797800,336.498000L63.326000,342.568000C63.136700,342.834000,63.059900,343.164000,63.112200,343.486000C63.164500,343.809000,63.341800,344.097000,63.605500,344.290000L63.840200,344.424000C66.825200,345.699000,68.312100,346.168000,72.090700,347.845000C74.326600,348.873000,80.240600,351.791000,83.426800,353.211000C86.612900,354.631000,88.412800,351.680000,87.239000,350.808000C81.962300,346.906000,79.346200,343.619000,78.228300,341.104000C78.014500,340.639000,77.630200,340.275000,77.155100,340.086000Z" fill="rgb(38,50,56)" stroke="none" stroke-width="1" stroke-miterlimit="1"/><path id="eg3FT4vin6B78" d="M77.546300,329.421000L77.401000,333.558000L69.172900,333.066000L69.318200,328.952000L77.546300,329.421000Z" opacity="0.2" fill="rgb(0,0,0)" stroke="none" stroke-width="1" stroke-miterlimit="1"/><path id="eg3FT4vin6B79" d="M90.816600,150.403000C92.482400,160.320000,89.542200,208.537000,86.344800,229.856000C82.141300,258.118000,78.944000,332.171000,78.944000,332.171000L67.954500,331.322000C67.954500,331.322000,64.600600,253.669000,67.239000,230.963000C66.467600,201.673000,64.187000,150.470000,64.187000,150.470000L90.816600,150.403000Z" fill="rgb(73,154,250)" stroke="none" stroke-width="1" stroke-miterlimit="1"/><path id="eg3FT4vin6B80" d="M90.816600,150.403000C92.482400,160.320000,89.542200,208.537000,86.344800,229.856000C82.141300,258.118000,78.944000,332.171000,78.944000,332.171000L67.954500,331.322000C67.954500,331.322000,64.600600,253.669000,67.239000,230.963000C66.467600,201.673000,64.187000,150.470000,64.187000,150.470000L90.816600,150.403000Z" opacity="0.1" fill="rgb(0,0,0)" stroke="none" stroke-width="1" stroke-miterlimit="1"/><path id="eg3FT4vin6B81" d="M65.517500,182.388000C65.249200,174.965000,70.615400,168.469000,72.493600,182.500000C73.678600,191.443000,70.648900,206.983000,66.836700,217.939000C66.467800,206.457000,65.975900,193.679000,65.517500,182.388000Z" opacity="0.2" fill="rgb(0,0,0)" stroke="none" stroke-width="1" stroke-miterlimit="1"/><path id="eg3FT4vin6B82" d="M8.558110,318.298000L14.796300,322.266000L20.408400,313.233000L14.170200,309.265000L8.558110,318.298000Z" fill="rgb(247,151,141)" stroke="none" stroke-width="1" stroke-miterlimit="1"/><path id="eg3FT4vin6B83" d="M15.757400,322.121000L8.893140,315.805000C8.778740,315.695000,8.626580,315.634000,8.468330,315.634000C8.310070,315.634000,8.157910,315.695000,8.043500,315.805000L2.453740,320.757000C2.321580,320.888000,2.216670,321.044000,2.145080,321.216000C2.073480,321.387000,2.036620,321.572000,2.036620,321.758000C2.036620,321.944000,2.073480,322.128000,2.145080,322.300000C2.216670,322.471000,2.321580,322.627000,2.453740,322.758000C4.868520,324.927000,6.142980,325.833000,9.161460,328.628000C11.017300,330.327000,13.242000,332.753000,15.802100,335.123000C18.362200,337.493000,20.698700,334.966000,19.837900,333.748000C15.958600,328.259000,16.763500,326.358000,16.338700,323.463000C16.291200,322.965000,16.087700,322.496000,15.757400,322.121000Z" fill="rgb(38,50,56)" stroke="none" stroke-width="1" stroke-miterlimit="1"/><path id="eg3FT4vin6B84" d="M20.408400,313.245000L17.881900,317.292000L11.565400,313.122000L14.159100,309.265000L20.408400,313.245000Z" opacity="0.2" fill="rgb(0,0,0)" stroke="none" stroke-width="1" stroke-miterlimit="1"/><path id="eg3FT4vin6B85" d="M74.415600,161.795000C74.415600,161.795000,64.041000,224.401000,58.026400,248.068000C53.677500,265.105000,20.362500,315.816000,20.362500,315.816000L11.843800,310.740000C11.843800,310.740000,23.302800,268.605000,41.503000,246.324000C42.621000,219.862000,40.385100,176.239000,50.871500,161.885000L74.415600,161.795000Z" fill="rgb(73,154,250)" stroke="none" stroke-width="1" stroke-miterlimit="1"/><path id="eg3FT4vin6B86" d="M74.415600,161.795000C74.415600,161.795000,64.041000,224.401000,58.026400,248.068000C53.677500,265.105000,20.362500,315.816000,20.362500,315.816000L11.843800,310.740000C11.843800,310.740000,23.302800,268.605000,41.503000,246.324000C42.621000,219.862000,40.385100,176.239000,50.871500,161.885000L74.415600,161.795000Z" opacity="0.1" fill="rgb(0,0,0)" stroke="none" stroke-width="1" stroke-miterlimit="1"/><g id="eg3FT4vin6B87_tr" transform="translate(92.907200,98.139439) rotate(0)"><g id="eg3FT4vin6B87" transform="translate(-92.907200,-98.139439)"><path id="eg3FT4vin6B88" d="M90.145900,109.207000C93.902300,105.406000,97.423800,101.493000,100.867000,97.434800C104.310000,93.376600,107.653000,89.251400,110.783000,84.869000L111.376000,84.052900L112.013000,83.102600C112.427000,82.465400,112.807000,81.828200,113.131000,81.190900C113.824000,79.905300,114.406000,78.586100,114.998000,77.345200C116.075000,74.821200,117.019000,72.242600,117.826000,69.620100C119.382000,64.496200,120.559000,59.265000,121.348000,53.968800C121.496000,53.387700,121.408000,52.771400,121.101000,52.255700C120.795000,51.739900,120.297000,51.366900,119.716000,51.218600C119.135000,51.070400,118.518000,51.159000,118.003000,51.465100C117.487000,51.771200,117.114000,52.269700,116.966000,52.850800C115.222000,57.669200,113.355000,62.543500,111.376000,67.183000C110.370000,69.519500,109.274000,71.788900,108.111000,73.946600C107.530000,75.064600,106.915000,76.048400,106.278000,77.021000C105.965000,77.512900,105.630000,77.971200,105.305000,78.418400L104.802000,79.055600L104.221000,79.782300C100.979000,83.717500,97.513300,87.608000,94.159400,91.431400C90.805600,95.254800,87.149800,99.078200,83.650600,102.812000C83.216200,103.243000,82.872300,103.756000,82.639400,104.322000C82.406600,104.888000,82.289300,105.495000,82.294600,106.107000C82.299900,106.718000,82.427700,107.323000,82.670300,107.885000C82.913000,108.446000,83.265700,108.954000,83.707600,109.377000C84.149500,109.800000,84.671600,110.131000,85.243300,110.349000C85.814900,110.567000,86.424400,110.669000,87.036000,110.648000C87.647500,110.627000,88.248600,110.483000,88.803800,110.226000C89.359100,109.969000,89.857200,109.604000,90.268900,109.151000L90.145900,109.207000Z" fill="rgb(247,151,141)" stroke="none" stroke-width="1" stroke-miterlimit="1"/><path id="eg3FT4vin6B89" d="M117.033000,54.494300L116.384000,47.127000L124.277000,50.380200C124.277000,50.380200,123.394000,54.751400,120.107000,56.473000L117.033000,54.494300Z" fill="rgb(247,151,141)" stroke="none" stroke-width="1" stroke-miterlimit="1"/><path id="eg3FT4vin6B90" d="M86.601900,96.216000C85.629300,94.885600,100.319000,83.493700,100.319000,83.493700L102.868000,99.882800C102.868000,99.882800,99.939100,105.931000,95.679700,109.229000C91.420300,112.527000,84.835600,101.470000,86.601900,96.216000Z" fill="rgb(73,154,250)" stroke="none" stroke-width="1" stroke-miterlimit="1"/><path id="eg3FT4vin6B91" d="M122.242000,42.621600L125.115000,44.857500C125.437000,45.102800,125.668000,45.447300,125.773000,45.837500C125.878000,46.227700,125.851000,46.641700,125.697000,47.015200L124.277000,50.369000L116.384000,47.115800L119.682000,42.934600C119.982000,42.555800,120.419000,42.310500,120.898000,42.251800C121.377000,42.193200,121.860000,42.326100,122.242000,42.621600Z" fill="rgb(247,151,141)" stroke="none" stroke-width="1" stroke-miterlimit="1"/></g></g><path id="eg3FT4vin6B92" d="M95.903100,101.583000C96.037300,118.117000,92.828700,131.007000,91.431300,142.377000C91.252400,143.819000,90.972900,148.593000,92.381500,158.542000C93.340100,166.708000,93.884900,174.917000,94.013800,183.137000L42.062500,179.862000C43.773000,157.581000,54.717700,144.087000,54.706500,141.024000C54.706500,131.790000,53.700400,122.343000,49.675800,104.255000C49.233000,102.252000,49.603700,100.155000,50.706400,98.425500C51.809100,96.695900,53.553600,95.475100,55.556200,95.031400C55.787800,94.974200,56.023200,94.933100,56.260500,94.908400C58.496400,94.617700,60.855300,94.360600,63.303600,94.237600C68.795400,93.824000,74.309600,93.801600,79.804600,94.170600C83.672700,94.505900,87.820300,95.154400,90.782900,95.646300C92.195600,95.881300,93.481400,96.603800,94.416800,97.688300C95.352200,98.772700,95.878100,100.151000,95.903100,101.583000Z" fill="rgb(73,154,250)" stroke="none" stroke-width="1" stroke-miterlimit="1"/><path id="eg3FT4vin6B93" d="M87.216700,116.116000L86.545900,116.116000L85.662700,113.455000C85.623600,113.337000,85.613200,113.211000,85.632400,113.088000C85.651600,112.965000,85.699800,112.849000,85.773000,112.748000C85.846200,112.648000,85.942400,112.566000,86.053500,112.510000C86.164500,112.454000,86.287400,112.425000,86.411700,112.426000L87.350800,112.426000C87.475200,112.425000,87.598000,112.454000,87.709100,112.510000C87.820200,112.566000,87.916300,112.648000,87.989500,112.748000C88.062800,112.849000,88.111000,112.965000,88.130100,113.088000C88.149300,113.211000,88.138900,113.337000,88.099800,113.455000L87.216700,116.116000Z" fill="rgb(38,50,56)" stroke="none" stroke-width="1" stroke-miterlimit="1"/><path id="eg3FT4vin6B94" d="M86.903700,113.388000C87.922500,113.388000,88.748300,112.562000,88.748300,111.543000C88.748300,110.525000,87.922500,109.699000,86.903700,109.699000C85.884900,109.699000,85.059100,110.525000,85.059100,111.543000C85.059100,112.562000,85.884900,113.388000,86.903700,113.388000Z" fill="rgb(73,154,250)" stroke="none" stroke-width="1" stroke-miterlimit="1"/><path id="eg3FT4vin6B95" d="M86.903500,112.683000C87.533300,112.683000,88.043800,112.173000,88.043800,111.543000C88.043800,110.913000,87.533300,110.403000,86.903500,110.403000C86.273700,110.403000,85.763200,110.913000,85.763200,111.543000C85.763200,112.173000,86.273700,112.683000,86.903500,112.683000Z" opacity="0.5" fill="rgb(255,255,255)" stroke="none" stroke-width="1" stroke-miterlimit="1"/><path id="eg3FT4vin6B96" d="M91.980100,114.908000L81.840300,114.908000C81.068500,114.908000,80.442900,115.534000,80.442900,116.306000L80.442900,121.594000C80.442900,122.365000,81.068500,122.991000,81.840300,122.991000L91.980100,122.991000C92.751900,122.991000,93.377600,122.365000,93.377600,121.594000L93.377600,116.306000C93.377600,115.534000,92.751900,114.908000,91.980100,114.908000Z" fill="rgb(73,154,250)" stroke="none" stroke-width="1" stroke-miterlimit="1"/><path id="eg3FT4vin6B97" d="M91.980100,114.908000L81.840300,114.908000C81.068500,114.908000,80.442900,115.534000,80.442900,116.306000L80.442900,121.594000C80.442900,122.365000,81.068500,122.991000,81.840300,122.991000L91.980100,122.991000C92.751900,122.991000,93.377600,122.365000,93.377600,121.594000L93.377600,116.306000C93.377600,115.534000,92.751900,114.908000,91.980100,114.908000Z" opacity="0.8" fill="rgb(255,255,255)" stroke="none" stroke-width="1" stroke-miterlimit="1"/><path id="eg3FT4vin6B98" d="M91.856300,115.355000L81.940000,115.355000C81.359700,115.355000,80.889200,115.826000,80.889200,116.406000L80.889200,121.471000C80.889200,122.051000,81.359700,122.522000,81.940000,122.522000L91.856300,122.522000C92.436700,122.522000,92.907200,122.051000,92.907200,121.471000L92.907200,116.406000C92.907200,115.826000,92.436700,115.355000,91.856300,115.355000Z" fill="rgb(73,154,250)" stroke="none" stroke-width="1" stroke-miterlimit="1"/><path id="eg3FT4vin6B99" d="M91.856300,115.355000L81.940000,115.355000C81.359700,115.355000,80.889200,115.826000,80.889200,116.406000L80.889200,121.471000C80.889200,122.051000,81.359700,122.522000,81.940000,122.522000L91.856300,122.522000C92.436700,122.522000,92.907200,122.051000,92.907200,121.471000L92.907200,116.406000C92.907200,115.826000,92.436700,115.355000,91.856300,115.355000Z" opacity="0.5" fill="rgb(255,255,255)" stroke="none" stroke-width="1" stroke-miterlimit="1"/><path id="eg3FT4vin6B100" d="M85.058500,116.417000L82.151900,116.417000L82.151900,119.704000L85.058500,119.704000L85.058500,116.417000Z" fill="rgb(73,154,250)" stroke="none" stroke-width="1" stroke-miterlimit="1"/><path id="eg3FT4vin6B101" d="M86.288900,117.558000C86.220700,117.558000,86.155300,117.531000,86.107100,117.482000C86.058800,117.434000,86.031700,117.369000,86.031700,117.301000C86.031700,117.232000,86.058800,117.167000,86.107100,117.119000C86.155300,117.071000,86.220700,117.043000,86.288900,117.043000L91.688600,117.043000C91.756800,117.043000,91.822200,117.071000,91.870400,117.119000C91.918600,117.167000,91.945700,117.232000,91.945700,117.301000C91.945700,117.369000,91.918600,117.434000,91.870400,117.482000C91.822200,117.531000,91.756800,117.558000,91.688600,117.558000L86.288900,117.558000Z" fill="rgb(255,255,255)" stroke="none" stroke-width="1" stroke-miterlimit="1"/><path id="eg3FT4vin6B102" d="M86.288900,120.811000C86.220700,120.811000,86.155300,120.784000,86.107100,120.736000C86.058800,120.688000,86.031700,120.622000,86.031700,120.554000C86.031700,120.486000,86.058800,120.420000,86.107100,120.372000C86.155300,120.324000,86.220700,120.297000,86.288900,120.297000L91.688600,120.297000C91.756800,120.297000,91.822200,120.324000,91.870400,120.372000C91.918600,120.420000,91.945700,120.486000,91.945700,120.554000C91.945700,120.622000,91.918600,120.688000,91.870400,120.736000C91.822200,120.784000,91.756800,120.811000,91.688600,120.811000L86.288900,120.811000Z" fill="rgb(255,255,255)" stroke="none" stroke-width="1" stroke-miterlimit="1"/><path id="eg3FT4vin6B103" d="M86.288900,119.201000C86.220700,119.201000,86.155300,119.174000,86.107100,119.126000C86.058800,119.078000,86.031700,119.012000,86.031700,118.944000C86.031700,118.876000,86.058800,118.811000,86.107100,118.762000C86.155300,118.714000,86.220700,118.687000,86.288900,118.687000L91.688600,118.687000C91.756800,118.687000,91.822200,118.714000,91.870400,118.762000C91.918600,118.811000,91.945700,118.876000,91.945700,118.944000C91.945700,119.012000,91.918600,119.078000,91.870400,119.126000C91.822200,119.174000,91.756800,119.201000,91.688600,119.201000L86.288900,119.201000Z" fill="rgb(255,255,255)" stroke="none" stroke-width="1" stroke-miterlimit="1"/><path id="eg3FT4vin6B104" d="M79.748200,94.214800C79.748200,94.214800,85.595000,98.451900,79.166800,108.748000C74.113500,103.663000,68.807700,98.834600,63.269500,94.281900L79.748200,94.214800Z" opacity="0.4" fill="rgb(255,255,255)" stroke="none" stroke-width="1" stroke-miterlimit="1"/><path id="eg3FT4vin6B105" d="M58.899300,152.505000L57.915500,152.505000C57.725500,152.505000,57.569000,152.404000,57.580200,152.281000L58.027300,148.056000C58.027300,147.933000,58.217400,147.832000,58.407400,147.832000L59.402400,147.832000C59.592500,147.832000,59.737800,147.921000,59.726600,148.056000L59.290600,152.270000C59.268300,152.404000,59.100600,152.505000,58.899300,152.505000Z" fill="rgb(73,154,250)" stroke="none" stroke-width="1" stroke-miterlimit="1"/><path id="eg3FT4vin6B106" d="M88.233300,152.404000L87.238300,152.404000C87.048200,152.404000,86.891700,152.304000,86.902900,152.181000L87.350100,147.955000C87.350100,147.832000,87.540100,147.731000,87.730200,147.731000L88.725200,147.731000C88.915200,147.731000,89.071700,147.832000,89.049400,147.955000L88.613400,152.181000C88.591000,152.293000,88.423300,152.393000,88.233300,152.404000Z" fill="rgb(73,154,250)" stroke="none" stroke-width="1" stroke-miterlimit="1"/><g id="eg3FT4vin6B107_tr" transform="translate(55.416046,100.404198) rotate(0)"><g id="eg3FT4vin6B107" transform="translate(-55.416046,-100.404198)"><path id="eg3FT4vin6B108" d="M73.567300,152.449000L72.583600,152.449000C72.382300,152.449000,72.237000,152.349000,72.248200,152.226000L72.695300,148C72.695300,147.877000,72.874200,147.776000,73.075400,147.776000L74.059200,147.776000C74.249300,147.776000,74.394600,147.877000,74.383400,148L73.947400,152.226000C73.916600,152.299000,73.863000,152.360000,73.794500,152.401000C73.726000,152.441000,73.646300,152.458000,73.567300,152.449000Z" fill="rgb(73,154,250)" stroke="none" stroke-width="1" stroke-miterlimit="1"/><path id="eg3FT4vin6B109" d="M46.009200,105.529000C44.298800,109.609000,42.767200,113.668000,41.325000,117.826000C40.620700,119.895000,39.916400,121.963000,39.312700,124.165000C38.631800,126.406000,38.090400,128.688000,37.691600,130.996000C37.573000,131.710000,37.498300,132.430000,37.468100,133.153000C37.445800,133.714000,37.479500,134.276000,37.568700,134.830000C37.568700,135.043000,37.669300,135.266000,37.736400,135.479000L37.837000,135.870000C37.894000,136.043000,37.965000,136.211000,38.049400,136.373000L38.183500,136.641000L38.183500,136.764000L38.183500,136.854000L38.306500,137.033000C38.988500,137.994000,39.592200,138.989000,40.352400,139.895000C41.795300,141.775000,43.396000,143.529000,45.137200,145.138000C46.919200,146.751000,48.881100,148.154000,50.984100,149.319000C52.057200,149.913000,53.179200,150.415000,54.338000,150.817000C54.919300,151.018000,55.523000,151.208000,56.126700,151.365000L57.077000,151.555000C57.434700,151.622000,57.691800,151.656000,58.194900,151.711000L58.843300,147.240000C58.696400,147.150000,58.543200,147.072000,58.385000,147.005000L57.781300,146.703000C57.378800,146.491000,56.976300,146.256000,56.585100,146.010000C55.797900,145.478000,55.040300,144.903000,54.315600,144.288000C52.841600,143.038000,51.483400,141.657000,50.257400,140.163000C49.664900,139.369000,49.038900,138.643000,48.491100,137.782000C47.943300,136.921000,47.373100,136.172000,46.870000,135.356000C46.367000,134.540000,45.886200,133.623000,45.372000,132.762000L45.372000,132.594000L45.372000,132.505000L45.372000,132.583000L45.372000,132.762000C45.372000,132.874000,45.483800,133.019000,45.506100,133.086000C45.512200,133.153000,45.512200,133.221000,45.506100,133.288000L45.573200,133.545000C45.573200,133.746000,45.573200,133.690000,45.573200,133.545000C45.609700,133.186000,45.677000,132.830000,45.774400,132.483000C46.260300,130.554000,46.842400,128.651000,47.518500,126.781000C48.200400,124.825000,48.915900,122.824000,49.664900,120.845000C51.163000,116.876000,52.716900,112.851000,54.248500,108.905000L46.009200,105.529000Z" fill="rgb(247,151,141)" stroke="none" stroke-width="1" stroke-miterlimit="1"/><path id="eg3FT4vin6B110" d="M69.072500,143.282000L66.020500,142.287000C65.800400,142.212000,65.567500,142.181000,65.335500,142.197000C65.103400,142.213000,64.876800,142.274000,64.668700,142.378000C64.460700,142.482000,64.275400,142.627000,64.123600,142.803000C63.971800,142.979000,63.856600,143.184000,63.784600,143.405000C63.683700,143.710000,63.670000,144.037000,63.745100,144.349000C63.820200,144.661000,63.981000,144.946000,64.209500,145.171000L55.511800,172.002000C55.349500,172.511000,55.394800,173.063000,55.637600,173.538000C55.880500,174.013000,56.301400,174.373000,56.808600,174.540000L57.557600,174.786000C58.066200,174.948000,58.618200,174.903000,59.093500,174.660000C59.568900,174.417000,59.929000,173.996000,60.095400,173.489000L68.793100,146.658000C69.108000,146.604000,69.402300,146.464000,69.644500,146.256000C69.886600,146.047000,70.067600,145.777000,70.168100,145.473000C70.310200,145.037000,70.274900,144.563000,70.069900,144.153000C69.864800,143.743000,69.506500,143.430000,69.072500,143.282000Z" fill="rgb(73,154,250)" stroke="none" stroke-width="1" stroke-miterlimit="1"/><path id="eg3FT4vin6B111" d="M69.072500,143.282000L66.020500,142.287000C65.800400,142.212000,65.567500,142.181000,65.335500,142.197000C65.103400,142.213000,64.876800,142.274000,64.668700,142.378000C64.460700,142.482000,64.275400,142.627000,64.123600,142.803000C63.971800,142.979000,63.856600,143.184000,63.784600,143.405000C63.683700,143.710000,63.670000,144.037000,63.745100,144.349000C63.820200,144.661000,63.981000,144.946000,64.209500,145.171000L55.511800,172.002000C55.349500,172.511000,55.394800,173.063000,55.637600,173.538000C55.880500,174.013000,56.301400,174.373000,56.808600,174.540000L57.557600,174.786000C58.066200,174.948000,58.618200,174.903000,59.093500,174.660000C59.568900,174.417000,59.929000,173.996000,60.095400,173.489000L68.793100,146.658000C69.108000,146.604000,69.402300,146.464000,69.644500,146.256000C69.886600,146.047000,70.067600,145.777000,70.168100,145.473000C70.310200,145.037000,70.274900,144.563000,70.069900,144.153000C69.864800,143.743000,69.506500,143.430000,69.072500,143.282000Z" opacity="0.6" fill="rgb(255,255,255)" stroke="none" stroke-width="1" stroke-miterlimit="1"/><path id="eg3FT4vin6B112" d="M64.857400,142.321000C65.549300,142.927000,66.377900,143.357000,67.272200,143.573000C68.123400,143.927000,69.048900,144.065000,69.966500,143.975000C69.752100,143.648000,69.432700,143.403000,69.060900,143.282000L66.008900,142.287000C65.632100,142.169000,65.226700,142.181000,64.857400,142.321000Z" fill="rgb(73,154,250)" stroke="none" stroke-width="1" stroke-miterlimit="1"/><path id="eg3FT4vin6B113" d="M62.443200,158.553000C61.649500,158.296000,61.079300,157.894000,61.146400,157.637000L56.383900,172.338000C56.338800,172.478000,56.321800,172.626000,56.333900,172.773000C56.346000,172.919000,56.387000,173.062000,56.454500,173.193000C56.522000,173.324000,56.614700,173.440000,56.727300,173.535000C56.839900,173.630000,56.970200,173.702000,57.110600,173.746000L57.859600,173.981000C58.141300,174.073000,58.447900,174.049000,58.712000,173.915000C58.976100,173.781000,59.176200,173.547000,59.268200,173.266000L64.030700,158.565000C63.930100,158.822000,63.225800,158.822000,62.443200,158.553000Z" fill="rgb(73,154,250)" stroke="none" stroke-width="1" stroke-miterlimit="1"/><path id="eg3FT4vin6B114" d="M64.031400,158.565000C63.953200,158.822000,63.237700,158.811000,62.443900,158.565000C61.650200,158.319000,61.057700,157.894000,61.147100,157.637000C61.236600,157.380000,61.940900,157.380000,62.734600,157.637000C63.528400,157.894000,64.120900,158.307000,64.031400,158.565000Z" fill="rgb(73,154,250)" stroke="none" stroke-width="1" stroke-miterlimit="1"/><path id="eg3FT4vin6B115" d="M64.031400,158.565000C63.953200,158.822000,63.237700,158.811000,62.443900,158.565000C61.650200,158.319000,61.057700,157.894000,61.147100,157.637000C61.236600,157.380000,61.940900,157.380000,62.734600,157.637000C63.528400,157.894000,64.120900,158.307000,64.031400,158.565000Z" opacity="0.3" fill="rgb(0,0,0)" stroke="none" stroke-width="1" stroke-miterlimit="1"/><g id="eg3FT4vin6B116" opacity="0.8"><path id="eg3FT4vin6B117" d="M64.992500,145.663000C62.115600,154.555000,59.238800,163.443000,56.361900,172.327000C56.345200,172.434000,56.367300,172.544000,56.424400,172.637000C56.481400,172.730000,56.569700,172.799000,56.673300,172.833000C56.776900,172.867000,56.889100,172.862000,56.989800,172.821000C57.090400,172.779000,57.173000,172.703000,57.222700,172.606000C60.092100,163.715000,62.969000,154.827000,65.853300,145.943000C65.870000,145.835000,65.847900,145.725000,65.790800,145.632000C65.733800,145.540000,65.645500,145.470000,65.541900,145.436000C65.438300,145.403000,65.326100,145.407000,65.225400,145.449000C65.124800,145.490000,65.042200,145.566000,64.992500,145.663000Z" opacity="0.8" fill="rgb(255,255,255)" stroke="none" stroke-width="1" stroke-miterlimit="1"/></g><path id="eg3FT4vin6B118" d="M55.624000,151.287000L63.740400,154.350000L65.037200,146.524000C65.037200,146.524000,60.308200,145.406000,57.412700,147.642000L55.624000,151.287000Z" fill="rgb(247,151,141)" stroke="none" stroke-width="1" stroke-miterlimit="1"/><path id="eg3FT4vin6B119" d="M68.624700,153.735000L69.742700,150.907000C69.950100,150.363000,69.937800,149.761000,69.708200,149.226000C69.478600,148.692000,69.049800,148.268000,68.512900,148.045000L65.013700,146.591000L63.739300,154.350000L65.975200,155.043000C66.500300,155.185000,67.059100,155.130000,67.546800,154.889000C68.034500,154.648000,68.417700,154.238000,68.624700,153.735000Z" fill="rgb(247,151,141)" stroke="none" stroke-width="1" stroke-miterlimit="1"/><path id="eg3FT4vin6B120" d="M63.918900,99.368700C66.154800,108.950000,51.073600,125.082000,51.073600,125.082000L38.832000,111.867000C38.832000,111.867000,44.734800,99.804700,52.247500,96.126700C57.468300,93.577700,62.935100,95.098100,63.918900,99.368700Z" fill="rgb(73,154,250)" stroke="none" stroke-width="1" stroke-miterlimit="1"/></g></g><path id="eg3FT4vin6B121" d="M64.858200,75.701700C65.976100,81.000800,67.004600,90.715800,63.304200,94.270900C68.987700,96.621200,74.207900,99.963800,78.720800,104.142000C82.868400,96.819800,79.838700,94.203800,79.838700,94.203800C73.924800,92.817500,74.047700,88.424000,75.065100,84.298700L64.858200,75.701700Z" fill="rgb(247,151,141)" stroke="none" stroke-width="1" stroke-miterlimit="1"/><path id="eg3FT4vin6B122" d="M65.975600,76.640900C66.063500,79.795400,66.825900,82.894500,68.211500,85.729800C69.184100,87.686200,71.833700,88.547100,74.516700,88.748300C74.452300,87.240700,74.622000,85.732100,75.019800,84.276500L65.975600,76.640900Z" opacity="0.2" fill="rgb(0,0,0)" stroke="none" stroke-width="1" stroke-miterlimit="1"/><path id="eg3FT4vin6B123" d="M72.057600,51.240900C71.811600,50.603600,72.538300,50.011100,73.175500,49.843400C74.092000,49.611700,75.059400,49.690600,75.926200,50.067700C76.793000,50.444900,77.510100,51.098900,77.965300,51.927400C78.420500,52.755900,78.587900,53.712000,78.441300,54.645800C78.294800,55.579700,77.842500,56.438500,77.155400,57.087800C77.379000,56.573500,78.418700,55.969800,78.910600,56.215800C79.377400,56.532800,79.711600,57.010200,79.849700,57.557300C80.043300,58.015800,80.101500,58.520100,80.017400,59.010700C79.977000,59.258100,79.860600,59.486900,79.684300,59.665200C79.508000,59.843500,79.280600,59.962500,79.033600,60.005600C80.176900,60.981400,81.028100,62.254300,81.493100,63.683700C81.680700,64.412900,81.638500,65.182200,81.372400,65.886600C81.106200,66.590900,80.629100,67.195900,80.006200,67.618900C81.314200,68.591500,82.532800,69.921900,82.398600,71.542900C82.320400,72.360600,82.039100,73.145900,81.580300,73.827200C81.121500,74.508600,80.499700,75.064600,79.771400,75.444600C80.498100,76.830800,81.850800,78.362400,81.191200,79.771000C80.363900,81.526200,77.725600,82.096400,77.356600,83.996900C78.083300,84.187000,78.843500,84.231700,79.592600,84.421700C79.830300,84.909100,79.940600,85.448700,79.913200,85.990200C79.885800,86.531800,79.721700,87.057600,79.436000,87.518500C79.055900,87.988000,78.318100,87.686100,77.714400,87.663800C77.414700,87.616300,77.107900,87.643500,76.821300,87.743000C76.534600,87.842400,76.276900,88.011100,76.071000,88.233900C75.972900,88.403900,75.921200,88.596700,75.921200,88.792900C75.921200,88.989200,75.972900,89.181900,76.071000,89.351900C76.952200,89.800100,77.906200,90.087800,78.888200,90.201500C78.141700,90.375000,77.368100,90.399100,76.612200,90.272500C75.856300,90.145800,75.132800,89.871000,74.483500,89.463700C73.843100,89.080400,73.305200,88.547600,72.915800,87.910900C72.526300,87.274300,72.297100,86.552700,72.247600,85.808000C72.247600,83.762100,73.801600,82.096400,75.288400,80.676600C75.579100,80.397100,75.992700,79.871700,75.635000,79.681600C75.449000,79.604400,75.249500,79.564700,75.048100,79.564700C74.846600,79.564700,74.647200,79.604400,74.461100,79.681600C74.088700,79.844200,73.679000,79.902100,73.276100,79.849300C72.608100,79.127500,72.040300,78.319000,71.588000,77.445700C71.084900,76.580800,70.944200,75.552000,71.196700,74.583700C71.449900,73.914000,71.829500,73.299200,72.314700,72.772600C72.665600,72.285400,73.101000,71.865100,73.600300,71.531700C74.181700,71.196300,74.964200,70.983900,75.131900,70.335500C75.171100,70.059400,75.113400,69.778200,74.968700,69.539700C74.824000,69.301300,74.601200,69.120300,74.338200,69.027500C73.808700,68.848800,73.253600,68.758200,72.694800,68.759200C72.129900,68.757300,71.586700,68.541600,71.174400,68.155500C70.704800,67.618900,70.168200,66.579200,70.458900,65.919600C70.658200,65.595100,70.920500,65.313800,71.230300,65.092300C72.347200,63.940500,73.121400,62.500500,73.466200,60.933500C73.515000,60.780800,73.515000,60.616700,73.466200,60.464000C73.354400,60.106200,72.840100,60.072700,72.527100,60.273900C72.252500,60.516800,71.991300,60.774300,71.744500,61.045300C71.465000,61.280100,70.984300,61.380700,70.760700,61.045300C70.168200,60.273900,64.779700,57.859200,69.296200,52.705400C69.676300,52.269400,69.765800,51.643300,70.212900,51.274400C70.486000,51.095700,70.804100,50.997700,71.130400,50.991700C71.456700,50.985800,71.778100,51.072200,72.057600,51.240900Z" fill="rgb(38,50,56)" stroke="none" stroke-width="1" stroke-miterlimit="1"/><path id="eg3FT4vin6B124" d="M56.350400,69.094800C58.955300,77.591200,59.816100,81.235700,65.294000,84.634300C73.421600,89.732200,83.281900,84.712600,83.315400,75.690700C83.315400,67.507300,79.078400,54.997400,69.900000,53.566400C67.861300,53.236700,65.772200,53.434000,63.831200,54.139500C61.890300,54.845000,60.162100,56.035200,58.810900,57.597000C57.459700,59.158800,56.530500,61.040300,56.111600,63.062600C55.692700,65.084800,55.798000,67.180600,56.417500,69.150600L56.350400,69.094800Z" fill="rgb(247,151,141)" stroke="none" stroke-width="1" stroke-miterlimit="1"/><path id="eg3FT4vin6B125" d="M53.075000,54.181000C53.175600,53.499100,52.325900,53.063100,51.644000,53.063100C50.694500,53.039400,49.764200,53.333000,49.000300,53.897300C48.236300,54.461600,47.682200,55.264500,47.425700,56.179000C47.169200,57.093400,47.224900,58.067300,47.583900,58.946600C47.942900,59.826000,48.584800,60.560500,49.408100,61.034100C49.072700,60.575700,47.921200,60.195600,47.507600,60.575700C47.126500,60.992100,46.908200,61.531900,46.892700,62.096200C46.811900,62.590400,46.870000,63.097400,47.060400,63.560700C47.161900,63.788600,47.328600,63.981300,47.539500,64.114600C47.750300,64.247900,47.996000,64.315800,48.245400,64.309700C47.359400,65.520800,46.822000,66.951300,46.691400,68.446100C46.678700,69.199400,46.898300,69.938400,47.320300,70.562500C47.742400,71.186600,48.346400,71.665500,49.050300,71.934100C47.999500,73.186300,47.116300,74.751400,47.619300,76.305300C47.881900,77.082700,48.334300,77.782300,48.935600,78.340600C49.536900,78.898900,50.268000,79.298400,51.062600,79.502700C50.671400,81.011900,49.698700,82.856500,50.671400,84.041600C51.878700,85.562000,54.573000,85.506100,55.366800,87.272500C54.707200,87.619000,53.980500,87.842600,53.320900,88.189200C53.194300,88.717000,53.207000,89.268600,53.358000,89.789900C53.508900,90.311300,53.792700,90.784400,54.181700,91.162900C54.651300,91.543000,55.299700,91.073500,55.881000,90.917000C56.162400,90.802700,56.467600,90.759300,56.769700,90.790500C57.071800,90.821700,57.361700,90.926500,57.613800,91.095900C57.761400,91.236900,57.867600,91.415600,57.920800,91.612700C57.974000,91.809800,57.972200,92.017700,57.915700,92.213800C57.792700,92.605100,55.847500,93.510600,55.366800,93.689500C56.917200,93.681700,58.401100,93.058400,59.492000,91.956700C60.026500,91.439000,60.426900,90.799000,60.658700,90.092000C60.890500,89.385000,60.946700,88.632100,60.822400,87.898500C60.386400,85.897400,58.452300,84.634100,56.685900,83.594400C56.339400,83.393200,55.813900,82.979500,56.115800,82.711200C56.443800,82.490100,56.842100,82.398500,57.233700,82.454100C57.630300,82.534100,58.041400,82.499200,58.418800,82.353500C58.916500,81.500700,59.292800,80.582500,59.536700,79.625700C59.683600,79.152700,59.735500,78.655400,59.689500,78.162300C59.643400,77.669200,59.500300,77.190100,59.268400,76.752500C58.862800,76.153000,58.342200,75.640000,57.736800,75.243300C57.278400,74.855100,56.756500,74.548800,56.194000,74.337700C55.556800,74.147700,54.740700,74.125300,54.438900,73.532800C54.334700,73.272200,54.324600,72.983400,54.410300,72.716100C54.496000,72.448900,54.672100,72.219800,54.908400,72.068300C55.386200,71.776500,55.906800,71.561500,56.451200,71.431100C56.999300,71.301700,57.478300,70.970400,57.792700,70.503200C58.007300,70.156600,58.136500,69.764100,58.169500,69.357800C58.202600,68.951600,58.138500,68.543300,57.982800,68.166600C57.712900,67.894200,57.389300,67.681000,57.032500,67.540600C55.705100,66.655400,54.642500,65.426800,53.958100,63.985500C53.865200,63.854000,53.810900,63.699100,53.801600,63.538300C53.801600,63.169400,54.327100,63.012900,54.673600,63.135900C54.999400,63.308200,55.313200,63.502400,55.612700,63.717200C55.948100,63.884900,56.428800,63.862500,56.585300,63.527100C56.976600,62.655100,61.672000,59.055300,56.093400,55.075400C55.635100,54.740000,55.389100,54.147500,54.886000,53.901600C54.588500,53.772900,54.260600,53.730900,53.940200,53.780300C53.619800,53.829800,53.319900,53.968700,53.075000,54.181000Z" fill="rgb(38,50,56)" stroke="none" stroke-width="1" stroke-miterlimit="1"/><path id="eg3FT4vin6B126" d="M61.928700,51.755000C67.619100,46.534200,73.890800,48.635900,77.177600,50.346400C78.830200,51.216900,80.281500,52.425200,81.437000,53.892700C82.592600,55.360300,83.426700,57.054400,83.885300,58.865200C84.231900,60.285000,83.885300,63.571800,81.124000,64.454900C80.355500,62.801400,79.277800,61.310100,77.949000,60.061400C75.891900,58.429200,72.046200,58.261500,70.514600,58.719900C69.031200,62.235700,67.013800,65.501300,64.533500,68.401300C62.096400,71.095600,58.507800,73.007300,54.919100,72.504200C53.240500,70.439200,52.152500,67.958100,51.770700,65.324400C51.388800,62.690700,51.727300,60.002800,52.750300,57.546000C54.952700,52.716400,61.928700,51.755000,61.928700,51.755000Z" fill="rgb(38,50,56)" stroke="none" stroke-width="1" stroke-miterlimit="1"/><path id="eg3FT4vin6B127" d="M54.427200,73.857200C54.671100,74.677000,55.076700,75.439600,55.620100,76.100100C56.163400,76.760600,56.833600,77.305600,57.591000,77.702900C59.603300,78.731500,61.079000,77.054500,60.944800,74.908100C60.788300,72.974000,59.547400,70.100900,57.333800,69.944400C56.854200,69.921900,56.376500,70.018600,55.943300,70.225800C55.510200,70.433000,55.135100,70.744300,54.851600,71.131800C54.568100,71.519400,54.385100,71.971200,54.318800,72.446700C54.252600,72.922300,54.305200,73.406900,54.471900,73.857200L54.427200,73.857200Z" fill="rgb(247,151,141)" stroke="none" stroke-width="1" stroke-miterlimit="1"/><path id="eg3FT4vin6B128" d="M69.552200,68.613900C69.719900,69.318300,70.223000,69.799000,70.670200,69.731900C71.117300,69.664800,71.352100,68.960500,71.195600,68.267400C71.039100,67.574200,70.513600,67.082300,70.077600,67.149400C69.641600,67.216500,69.384500,67.909600,69.552200,68.613900Z" fill="rgb(38,50,56)" stroke="none" stroke-width="1" stroke-miterlimit="1"/><path id="eg3FT4vin6B129" d="M77.491000,66.735700C77.647500,67.440000,78.150600,67.920700,78.608900,67.853600C79.067300,67.786600,79.302000,67.093400,79.134300,66.377900C78.966700,65.662400,78.463600,65.204100,78.016400,65.260000C77.569200,65.315900,77.312100,66.031400,77.491000,66.735700Z" fill="rgb(38,50,56)" stroke="none" stroke-width="1" stroke-miterlimit="1"/><path id="eg3FT4vin6B130" d="M77.826200,65.349500L79.391300,64.466300C79.391300,64.466300,78.843500,66.031400,77.826200,65.349500Z" fill="rgb(38,50,56)" stroke="none" stroke-width="1" stroke-miterlimit="1"/><path id="eg3FT4vin6B131" d="M75.702600,68.435100C76.707100,69.886000,77.902900,71.194700,79.257700,72.325500C78.968800,72.677100,78.605100,72.959800,78.193200,73.153100C77.781300,73.346500,77.331500,73.445700,76.876500,73.443500L75.702600,68.435100Z" fill="rgb(255,86,82)" stroke="none" stroke-width="1" stroke-miterlimit="1"/><path id="eg3FT4vin6B132" d="M75.132600,76.092900C75.167800,76.062300,75.191900,76.020900,75.201200,75.975200C75.210600,75.929500,75.204600,75.882000,75.184200,75.840100C75.163900,75.798100,75.130300,75.764000,75.088600,75.743000C75.047000,75.722000,74.999600,75.715300,74.953700,75.724000C74.092500,75.979300,73.183300,76.028300,72.299600,75.867100C71.416000,75.705900,70.582600,75.339000,69.867000,74.796100C69.824500,74.768700,69.773600,74.757300,69.723400,74.764100C69.673300,74.770900,69.627200,74.795400,69.593500,74.833200C69.559800,74.870900,69.540700,74.919400,69.539600,74.970000C69.538500,75.020600,69.555500,75.069900,69.587600,75.109100C70.352100,75.709700,71.250900,76.116000,72.206900,76.293200C73.162900,76.470400,74.147700,76.413200,75.076700,76.126400L75.132600,76.092900Z" fill="rgb(38,50,56)" stroke="none" stroke-width="1" stroke-miterlimit="1"/><path id="eg3FT4vin6B133" d="M67.094600,66.344600C67.154400,66.299700,67.204000,66.242500,67.239900,66.176900C67.438200,65.685000,67.750400,65.247100,68.150700,64.899300C68.551000,64.551400,69.028200,64.303400,69.542900,64.175700C69.599500,64.168700,69.654100,64.150300,69.703400,64.121700C69.752800,64.093100,69.795900,64.054900,69.830100,64.009300C69.864400,63.963700,69.889100,63.911600,69.902800,63.856300C69.916500,63.800900,69.918900,63.743400,69.909900,63.687100C69.900900,63.630700,69.880600,63.576800,69.850300,63.528500C69.820000,63.480200,69.780300,63.438500,69.733600,63.405800C69.686800,63.373200,69.633900,63.350300,69.578100,63.338500C69.522300,63.326700,69.464700,63.326300,69.408700,63.337300C68.753300,63.486500,68.143200,63.790800,67.629700,64.224600C67.116100,64.658400,66.714100,65.209100,66.457400,65.830300C66.435500,65.882400,66.424300,65.938200,66.424300,65.994700C66.424300,66.051100,66.435600,66.107000,66.457500,66.159100C66.479300,66.211100,66.511300,66.258300,66.551600,66.297800C66.591900,66.337300,66.639700,66.368400,66.692100,66.389300C66.757200,66.418100,66.828700,66.429100,66.899400,66.421200C66.970100,66.413400,67.037400,66.386900,67.094600,66.344600Z" fill="rgb(38,50,56)" stroke="none" stroke-width="1" stroke-miterlimit="1"/><path id="eg3FT4vin6B134" d="M79.748400,63.315000L79.804300,63.315000C79.844100,63.275500,79.875800,63.228400,79.897400,63.176600C79.919000,63.124800,79.930100,63.069200,79.930100,63.013100C79.930100,62.957000,79.919000,62.901400,79.897400,62.849600C79.875800,62.797800,79.844100,62.750800,79.804300,62.711300C79.326300,62.253100,78.747700,61.913400,78.114800,61.719300C77.481900,61.525100,76.812300,61.482000,76.159700,61.593300C76.052300,61.619900,75.959500,61.687300,75.901000,61.781300C75.842600,61.875200,75.823100,61.988300,75.846700,62.096400C75.859800,62.150800,75.883500,62.202000,75.916500,62.247200C75.949500,62.292400,75.991000,62.330600,76.038800,62.359700C76.086600,62.388800,76.139700,62.408200,76.194900,62.416700C76.250200,62.425200,76.306600,62.422700,76.361000,62.409400C76.885200,62.319900,77.423100,62.356400,77.930500,62.515800C78.437800,62.675200,78.900000,62.952900,79.278800,63.326100C79.348400,63.373700,79.431200,63.398100,79.515400,63.396100C79.599600,63.394100,79.681100,63.365700,79.748400,63.315000Z" fill="rgb(38,50,56)" stroke="none" stroke-width="1" stroke-miterlimit="1"/><path id="eg3FT4vin6B135" d="M69.888200,67.238800L71.464500,66.344500C71.464500,66.344500,70.916700,67.876100,69.888200,67.238800Z" fill="rgb(38,50,56)" stroke="none" stroke-width="1" stroke-miterlimit="1"/><path id="eg3FT4vin6B136" d="M155.413000,321.517000C154.968000,321.517000,154.541000,321.341000,154.227000,321.026000C153.913000,320.712000,153.736000,320.285000,153.736000,319.840000L153.736000,2.453540C153.736000,2.008790,153.913000,1.582270,154.227000,1.267780C154.541000,0.953295,154.968000,0.776611,155.413000,0.776611C155.858000,0.776611,156.284000,0.953295,156.599000,1.267780C156.913000,1.582270,157.090000,2.008790,157.090000,2.453540L157.090000,319.807000C157.094000,320.030000,157.054000,320.251000,156.972000,320.459000C156.890000,320.666000,156.767000,320.855000,156.611000,321.014000C156.454000,321.174000,156.268000,321.300000,156.062000,321.387000C155.857000,321.473000,155.636000,321.517000,155.413000,321.517000Z" fill="rgb(38,50,56)" stroke="none" stroke-width="1" stroke-miterlimit="1"/><path id="eg3FT4vin6B137" d="M195.368000,21.168100L115.780000,21.168100C115.336000,21.168100,114.909000,20.991400,114.595000,20.676900C114.280000,20.362400,114.104000,19.935900,114.104000,19.491100C114.104000,19.046400,114.280000,18.619900,114.595000,18.305400C114.909000,17.990900,115.336000,17.814200,115.780000,17.814200L195.368000,17.814200C195.812000,17.814200,196.239000,17.990900,196.553000,18.305400C196.868000,18.619900,197.044000,19.046400,197.044000,19.491100C197.044000,19.935900,196.868000,20.362400,196.553000,20.676900C196.239000,20.991400,195.812000,21.168100,195.368000,21.168100Z" fill="rgb(38,50,56)" stroke="none" stroke-width="1" stroke-miterlimit="1"/><path id="eg3FT4vin6B138" d="M133.054000,338.130000L151.746000,336.285000L151.746000,306.101000L159.158000,306.101000L159.158000,336.285000L177.928000,338.130000C178.827000,338.219000,179.660000,338.639000,180.265000,339.309000C180.871000,339.978000,181.205000,340.849000,181.204000,341.752000L181.204000,344.558000L129.700000,344.558000L129.700000,341.752000C129.700000,340.837000,130.045000,339.956000,130.667000,339.284000C131.289000,338.612000,132.141000,338.200000,133.054000,338.130000Z" fill="rgb(38,50,56)" stroke="none" stroke-width="1" stroke-miterlimit="1"/><path id="eg3FT4vin6B139" d="M133.054000,338.130000L151.746000,336.285000L151.746000,306.101000L159.158000,306.101000L159.158000,336.285000L177.928000,338.130000C178.827000,338.219000,179.660000,338.639000,180.265000,339.309000C180.871000,339.978000,181.205000,340.849000,181.204000,341.752000L181.204000,344.558000L129.700000,344.558000L129.700000,341.752000C129.700000,340.837000,130.045000,339.956000,130.667000,339.284000C131.289000,338.612000,132.141000,338.200000,133.054000,338.130000Z" opacity="0.2" fill="rgb(255,255,255)" stroke="none" stroke-width="1" stroke-miterlimit="1"/><path id="eg3FT4vin6B140" d="M174.351000,348.035000C174.348000,348.995000,174.631000,349.934000,175.163000,350.734000C175.695000,351.533000,176.452000,352.157000,177.338000,352.526000C178.224000,352.895000,179.200000,352.992000,180.142000,352.806000C181.084000,352.620000,181.950000,352.159000,182.629000,351.481000C183.309000,350.803000,183.772000,349.938000,183.960000,348.997000C184.148000,348.055000,184.053000,347.079000,183.686000,346.192000C183.319000,345.305000,182.697000,344.546000,181.899000,344.013000C181.101000,343.479000,180.163000,343.194000,179.203000,343.194000C178.566000,343.193000,177.935000,343.317000,177.347000,343.560000C176.758000,343.802000,176.223000,344.159000,175.772000,344.608000C175.322000,345.058000,174.964000,345.592000,174.720000,346.180000C174.476000,346.768000,174.351000,347.398000,174.351000,348.035000Z" fill="rgb(38,50,56)" stroke="none" stroke-width="1" stroke-miterlimit="1"/><path id="eg3FT4vin6B141" d="M136.563000,348.035000C136.565000,348.996000,136.282000,349.935000,135.750000,350.735000C135.218000,351.534000,134.460000,352.158000,133.573000,352.527000C132.686000,352.895000,131.710000,352.992000,130.767000,352.805000C129.825000,352.619000,128.960000,352.156000,128.280000,351.477000C127.601000,350.798000,127.139000,349.932000,126.952000,348.990000C126.765000,348.048000,126.862000,347.071000,127.231000,346.184000C127.599000,345.297000,128.223000,344.540000,129.023000,344.007000C129.822000,343.475000,130.762000,343.192000,131.722000,343.194000C132.358000,343.194000,132.988000,343.320000,133.575000,343.563000C134.162000,343.806000,134.696000,344.163000,135.145000,344.612000C135.595000,345.062000,135.951000,345.595000,136.195000,346.183000C136.438000,346.770000,136.563000,347.399000,136.563000,348.035000Z" fill="rgb(38,50,56)" stroke="none" stroke-width="1" stroke-miterlimit="1"/><path id="eg3FT4vin6B142" d="M144.959000,64.980800C143.629000,67.540900,141.605000,69.788000,141.124000,69.788000C140.957000,69.788000,140.744000,70.257500,140.532000,70.905900C140.239000,71.763900,139.683000,72.507300,138.942000,73.029400C138.200000,73.551600,137.313000,73.825800,136.407000,73.812600L127.005000,73.812600C126.098000,73.825800,125.211000,73.551600,124.470000,73.029400C123.729000,72.507300,123.172000,71.763900,122.879000,70.905900C122.678000,70.291100,122.466000,69.788000,122.287000,69.788000C121.784000,69.788000,119.783000,67.552100,118.452000,64.980800C117.122000,62.409500,118.620000,52.806300,119.291000,49.117000C119.962000,45.427800,117.122000,37.423200,119.291000,34.214700C121.147000,31.464600,142.265000,31.464600,144.121000,34.214700C146.289000,37.423200,143.461000,45.394300,144.121000,49.117000C144.780000,52.839800,146.289000,62.420700,144.959000,64.980800Z" fill="rgb(73,154,250)" stroke="none" stroke-width="1" stroke-miterlimit="1"/><path id="eg3FT4vin6B143" d="M144.959000,64.980800C143.629000,67.540900,141.605000,69.788000,141.124000,69.788000C140.957000,69.788000,140.744000,70.257500,140.532000,70.905900C140.239000,71.763900,139.683000,72.507300,138.942000,73.029400C138.200000,73.551600,137.313000,73.825800,136.407000,73.812600L127.005000,73.812600C126.098000,73.825800,125.211000,73.551600,124.470000,73.029400C123.729000,72.507300,123.172000,71.763900,122.879000,70.905900C122.678000,70.291100,122.466000,69.788000,122.287000,69.788000C121.784000,69.788000,119.783000,67.552100,118.452000,64.980800C117.122000,62.409500,118.620000,52.806300,119.291000,49.117000C119.962000,45.427800,117.122000,37.423200,119.291000,34.214700C121.147000,31.464600,142.265000,31.464600,144.121000,34.214700C146.289000,37.423200,143.461000,45.394300,144.121000,49.117000C144.780000,52.839800,146.289000,62.420700,144.959000,64.980800Z" opacity="0.5" fill="rgb(255,255,255)" stroke="none" stroke-width="1" stroke-miterlimit="1"/><path id="eg3FT4vin6B144" d="M135.289000,28.311800L128.033000,28.311800L125.797000,32.515300L137.525000,32.515300L135.289000,28.311800ZM131.823000,31.375000C129.979000,31.375000,128.469000,30.905400,128.469000,30.346400C128.469000,29.787500,129.967000,29.317900,131.823000,29.317900C133.679000,29.317900,135.177000,29.776300,135.177000,30.346400C135.177000,30.916600,133.668000,31.375000,131.823000,31.375000Z" fill="rgb(73,154,250)" stroke="none" stroke-width="1" stroke-miterlimit="1"/><path id="eg3FT4vin6B145" d="M121.157000,49.128100C121.738000,45.774300,119.268000,38.541100,121.157000,35.634400C122.778000,33.141400,141.146000,33.141400,142.778000,35.634400C144.656000,38.541100,142.197000,45.785400,142.778000,49.128100C143.360000,52.470800,144.656000,61.168500,143.494000,63.493800C142.331000,65.819100,140.598000,67.842600,140.140000,67.842600C139.994000,67.842600,139.804000,68.278600,139.626000,68.837600C139.440000,69.435400,139.108000,69.976900,138.658000,70.412500C138.209000,70.848200,137.657000,71.163900,137.054000,71.330700L137.166000,77.132800C137.166000,77.381900,137.067000,77.620800,136.891000,77.796900C136.715000,77.973000,136.476000,78.071900,136.227000,78.071900C135.977000,78.071900,135.737000,77.973400,135.559000,77.797600C135.381000,77.621800,135.280000,77.382900,135.277000,77.132800L135.198000,72.593900C135.198000,72.297400,135.081000,72.013100,134.871000,71.803400C134.661000,71.593800,134.377000,71.476000,134.080000,71.476000L133.980000,71.476000C133.683000,71.476000,133.399000,71.593800,133.189000,71.803400C132.980000,72.013100,132.862000,72.297400,132.862000,72.593900L132.940000,77.065800C132.940000,77.314800,132.841000,77.553700,132.665000,77.729800C132.489000,77.905900,132.250000,78.004800,132.001000,78.004800C131.752000,78.004800,131.513000,77.905900,131.337000,77.729800C131.161000,77.553700,131.062000,77.314800,131.062000,77.065800L130.973000,72.526900C130.973000,72.230400,130.855000,71.946000,130.645000,71.736400C130.435000,71.526700,130.151000,71.408900,129.855000,71.408900L129.251000,71.408900C128.954000,71.408900,128.670000,71.526700,128.460000,71.736400C128.251000,71.946000,128.133000,72.230400,128.133000,72.526900L128.222000,76.998700C128.197000,77.231500,128.087000,77.446800,127.912000,77.603200C127.738000,77.759500,127.512000,77.846000,127.278000,77.846000C127.044000,77.846000,126.818000,77.759500,126.643000,77.603200C126.469000,77.446800,126.358000,77.231500,126.333000,76.998700L126.221000,70.905800C125.783000,70.673300,125.395000,70.355800,125.080000,69.972000C124.765000,69.588100,124.530000,69.145500,124.388000,68.669900C124.209000,68.111000,124.019000,67.675000,123.874000,67.675000C123.438000,67.675000,121.694000,65.640300,120.520000,63.326100C119.346000,61.012000,120.654000,52.291900,121.235000,48.960400" fill="rgb(255,255,255)" stroke="none" stroke-width="1" stroke-miterlimit="1"/><path id="eg3FT4vin6B146" d="M140.085000,43.672400C140.085000,44.410300,139.503000,44.790400,138.374000,44.790400L136.138000,44.790400L136.138000,40.519800L138.218000,40.519800C139.336000,40.519800,139.839000,40.967000,139.839000,41.637700C139.843000,41.832400,139.792000,42.024400,139.691000,42.190900C139.590000,42.357300,139.443000,42.491300,139.268000,42.576800C139.506000,42.643500,139.716000,42.787200,139.863000,42.985500C140.011000,43.183700,140.089000,43.425300,140.085000,43.672400ZM137.156000,41.313500L137.156000,42.319700L138.139000,42.319700C138.620000,42.319700,138.877000,42.140800,138.877000,41.805400C138.877000,41.470000,138.620000,41.313500,138.139000,41.313500L137.156000,41.313500ZM139.090000,43.549400C139.090000,43.191700,138.821000,43.024000,138.307000,43.024000L137.189000,43.024000L137.189000,44.074900L138.307000,44.074900C138.821000,44.074900,139.090000,43.918400,139.090000,43.549400Z" fill="rgb(0,0,0)" stroke="none" stroke-width="1" stroke-miterlimit="1"/><path id="eg3FT4vin6B147" d="M142.778000,49.128200C143.348000,52.482000,144.656000,61.168500,143.494000,63.493800C142.331000,65.819200,140.598000,67.842700,140.140000,67.842700C139.994000,67.842700,139.804000,68.278700,139.626000,68.837700C139.440000,69.435400,139.108000,69.976900,138.658000,70.412600C138.209000,70.848200,137.657000,71.163900,137.054000,71.330700L137.166000,77.132900C137.166000,77.381900,137.067000,77.620800,136.891000,77.796900C136.715000,77.973000,136.476000,78.072000,136.227000,78.072000C135.977000,78.072000,135.737000,77.973400,135.559000,77.797600C135.381000,77.621800,135.280000,77.382900,135.277000,77.132900L135.198000,72.594000C135.198000,72.297500,135.081000,72.013100,134.871000,71.803500C134.661000,71.593800,134.377000,71.476000,134.080000,71.476000L133.980000,71.476000C133.683000,71.476000,133.399000,71.593800,133.189000,71.803500C132.980000,72.013100,132.862000,72.297500,132.862000,72.594000L132.940000,77.065800C132.940000,77.314800,132.841000,77.553700,132.665000,77.729800C132.489000,77.905900,132.250000,78.004900,132.001000,78.004900C131.752000,78.004900,131.513000,77.905900,131.337000,77.729800C131.161000,77.553700,131.062000,77.314800,131.062000,77.065800L130.973000,72.526900C130.973000,72.230400,130.855000,71.946000,130.645000,71.736400C130.435000,71.526700,130.151000,71.408900,129.855000,71.408900L129.251000,71.408900C128.954000,71.408900,128.670000,71.526700,128.460000,71.736400C128.251000,71.946000,128.133000,72.230400,128.133000,72.526900L128.222000,76.998700C128.197000,77.231500,128.087000,77.446800,127.912000,77.603200C127.738000,77.759600,127.512000,77.846100,127.278000,77.846100C127.044000,77.846100,126.818000,77.759600,126.643000,77.603200C126.469000,77.446800,126.358000,77.231500,126.333000,76.998700L126.221000,70.905900C125.783000,70.673300,125.395000,70.355800,125.080000,69.972000C124.765000,69.588200,124.530000,69.145600,124.388000,68.670000C124.209000,68.111000,124.019000,67.675000,123.874000,67.675000C123.438000,67.675000,121.694000,65.640300,120.520000,63.326200C119.346000,61.012000,120.654000,52.291900,121.235000,48.960400C124.553000,50.764700,128.269000,51.710000,132.046000,51.710000C135.822000,51.710000,139.539000,50.764700,142.856000,48.960400L142.778000,49.128200Z" fill="rgb(73,154,250)" stroke="none" stroke-width="1" stroke-miterlimit="1"/><path id="eg3FT4vin6B148" d="M125.584000,75.679400L128.782000,75.679400L128.782000,77.635900C128.779000,77.963000,128.647000,78.275800,128.414000,78.506100C128.182000,78.736400,127.868000,78.865600,127.541000,78.865600L126.814000,78.865600C126.488000,78.865600,126.175000,78.736000,125.945000,78.505400C125.714000,78.274800,125.584000,77.962000,125.584000,77.635900L125.584000,75.679400Z" opacity="0.2" fill="rgb(255,255,255)" stroke="none" stroke-width="1" stroke-miterlimit="1"/><path id="eg3FT4vin6B149" d="M134.663000,75.679400L137.849000,75.679400L137.849000,77.635900C137.849000,77.962000,137.719000,78.274800,137.489000,78.505400C137.258000,78.736000,136.945000,78.865600,136.619000,78.865600L135.892000,78.865600C135.566000,78.865600,135.253000,78.736000,135.023000,78.505400C134.792000,78.274800,134.663000,77.962000,134.663000,77.635900L134.663000,75.679400Z" opacity="0.2" fill="rgb(255,255,255)" stroke="none" stroke-width="1" stroke-miterlimit="1"/><path id="eg3FT4vin6B150" d="M135.423000,31.878000C134.288000,31.875100,133.201000,31.423000,132.398000,30.620700C131.596000,29.818300,131.144000,28.730900,131.141000,27.596300L131.141000,19.491100C131.141000,19.342900,131.200000,19.200700,131.305000,19.095800C131.410000,18.991000,131.552000,18.932100,131.700000,18.932100C131.848000,18.932100,131.991000,18.991000,132.095000,19.095800C132.200000,19.200700,132.259000,19.342900,132.259000,19.491100L132.259000,27.596300C132.259000,28.435400,132.592000,29.240100,133.186000,29.833400C133.779000,30.426700,134.584000,30.760100,135.423000,30.760100C136.262000,30.760100,137.067000,30.426700,137.660000,29.833400C138.253000,29.240100,138.587000,28.435400,138.587000,27.596300L138.587000,26.590100C138.587000,26.441900,138.646000,26.299700,138.750000,26.194800C138.855000,26.090000,138.997000,26.031100,139.146000,26.031100C139.294000,26.031100,139.436000,26.090000,139.541000,26.194800C139.646000,26.299700,139.705000,26.441900,139.705000,26.590100L139.705000,27.596300C139.702000,28.730900,139.250000,29.818300,138.447000,30.620700C137.645000,31.423000,136.558000,31.875100,135.423000,31.878000Z" fill="rgb(73,154,250)" stroke="none" stroke-width="1" stroke-miterlimit="1"/><path id="eg3FT4vin6B151" d="M220.511000,183.551000L204.859000,183.551000C195.220000,183.554000,185.675000,181.657000,176.769000,177.970000C167.864000,174.283000,159.772000,168.877000,152.956000,162.061000C146.140000,155.245000,140.734000,147.153000,137.047000,138.247000C133.359000,129.341000,131.463000,119.796000,131.466000,110.157000L131.466000,77.468300L132.584000,77.468300L132.584000,110.157000C132.581000,119.649000,134.448000,129.049000,138.079000,137.819000C141.711000,146.590000,147.034000,154.558000,153.746000,161.270000C160.458000,167.982000,168.427000,173.306000,177.197000,176.937000C185.967000,180.568000,195.367000,182.436000,204.859000,182.433000L220.511000,182.433000L220.511000,183.551000Z" fill="rgb(73,154,250)" stroke="none" stroke-width="1" stroke-miterlimit="1"/><path id="eg3FT4vin6B152" d="M224.703000,184.009000L216.274000,184.009000L216.900000,181.974000L225.206000,181.974000L224.703000,184.009000Z" fill="rgb(255,255,255)" stroke="none" stroke-width="1" stroke-miterlimit="1"/><path id="eg3FT4vin6B153" d="M223.831000,180.935000C222.121000,181.516000,220.242000,184.411000,220.064000,185.887000L218.163000,185.887000C218.163000,184.221000,220.142000,181.415000,221.942000,180.935000L223.831000,180.935000Z" fill="rgb(73,154,250)" stroke="none" stroke-width="1" stroke-miterlimit="1"/></svg>